<svg width="46" height="46" viewBox="0 0 46 46" fill="none" xmlns="http://www.w3.org/2000/svg">
<path fill-rule="evenodd" clip-rule="evenodd" d="M2.875 23C2.875 22.6187 3.02645 22.2531 3.29603 21.9835C3.56562 21.7139 3.93125 21.5625 4.3125 21.5625H38.2174L29.1697 12.5177C28.8998 12.2478 28.7482 11.8817 28.7482 11.5C28.7482 11.1183 28.8998 10.7522 29.1697 10.4822C29.4397 10.2123 29.8058 10.0607 30.1875 10.0607C30.5692 10.0607 30.9353 10.2123 31.2052 10.4822L42.7052 21.9822C42.8391 22.1158 42.9453 22.2744 43.0178 22.449C43.0903 22.6237 43.1276 22.8109 43.1276 23C43.1276 23.1891 43.0903 23.3763 43.0178 23.5509C42.9453 23.7256 42.8391 23.8842 42.7052 24.0177L31.2052 35.5177C30.9353 35.7877 30.5692 35.9393 30.1875 35.9393C29.8058 35.9393 29.4397 35.7877 29.1697 35.5177C28.8998 35.2478 28.7482 34.8817 28.7482 34.5C28.7482 34.1183 28.8998 33.7522 29.1697 33.4822L38.2174 24.4375H4.3125C3.93125 24.4375 3.56562 24.286 3.29603 24.0165C3.02645 23.7469 2.875 23.3812 2.875 23Z" fill="#104547"/>
</svg>
