<svg width="92" height="30" viewBox="0 0 92 30" fill="none" xmlns="http://www.w3.org/2000/svg">
<path d="M0 29.1077V12.2802H6.31032C7.60306 12.2802 8.68764 12.5212 9.56407 13.0032C10.446 13.4852 11.1115 14.148 11.5607 14.9916C12.0153 15.8297 12.2427 16.7828 12.2427 17.851C12.2427 18.9301 12.0153 19.8887 11.5607 20.7268C11.106 21.5649 10.435 22.2249 9.54764 22.707C8.66025 23.1835 7.56745 23.4218 6.26923 23.4218H2.08701V20.9158H5.85841C6.61433 20.9158 7.23331 20.7843 7.71535 20.5214C8.19738 20.2584 8.55344 19.8969 8.7835 19.4368C9.01904 18.9766 9.13681 18.448 9.13681 17.851C9.13681 17.2539 9.01904 16.728 8.7835 16.2734C8.55344 15.8187 8.19465 15.4654 7.70713 15.2135C7.22509 14.956 6.60337 14.8273 5.84197 14.8273H3.04834V29.1077H0Z" fill="#292E2E"/>
<path d="M17.9388 12.2802V29.1077H14.8905V12.2802H17.9388Z" fill="#292E2E"/>
<path d="M21.2398 29.1077V12.2802H27.5501C28.8429 12.2802 29.9274 12.5212 30.8039 13.0032C31.6858 13.4852 32.3513 14.148 32.8005 14.9916C33.2551 15.8297 33.4825 16.7828 33.4825 17.851C33.4825 18.9301 33.2551 19.8887 32.8005 20.7268C32.3458 21.5649 31.6748 22.2249 30.7874 22.707C29.9001 23.1835 28.8073 23.4218 27.509 23.4218H23.3268V20.9158H27.0982C27.8541 20.9158 28.4731 20.7843 28.9551 20.5214C29.4372 20.2584 29.7932 19.8969 30.0233 19.4368C30.2588 18.9766 30.3766 18.448 30.3766 17.851C30.3766 17.2539 30.2588 16.728 30.0233 16.2734C29.7932 15.8187 29.4344 15.4654 28.9469 15.2135C28.4649 14.956 27.8432 14.8273 27.0818 14.8273H24.2881V29.1077H21.2398Z" fill="#292E2E"/>
<path d="M36.1303 29.1077V12.2802H39.1786V26.5523H46.5899V29.1077H36.1303Z" fill="#292E2E"/>
<path d="M49.2357 29.1077V12.2802H60.1801V14.8355H52.284V19.4039H59.6132V21.9593H52.284V26.5523H60.2458V29.1077H49.2357Z" fill="#292E2E"/>
<path d="M62.5506 14.8355V12.2802H75.9764V14.8355H70.7754V29.1077H67.7517V14.8355H62.5506Z" fill="#292E2E"/>
<path d="M90.53 4.88551C90.8915 7.41621 89.9829 9.45389 87.2449 10.8455C84.7455 12.1158 80.7687 12.4776 80.7687 12.4776C80.4072 9.94689 79.7167 3.72977 83.6415 1.74486C86.136 0.483326 89.8973 1.74487 90.53 4.88551Z" fill="#FF205B"/>
</svg>
