<svg width="335" height="335" viewBox="0 0 335 335" fill="none" xmlns="http://www.w3.org/2000/svg">
<g clip-path="url(#clip0_44_271)">
<path d="M168.547 201C175.582 201 179.099 195.975 180.146 187.872C180.984 176.692 184.292 170.808 197.88 161.491C211.971 151.546 219.844 138.669 219.844 119.909C219.844 92.1669 200.581 73.2812 172.483 73.2812C151.127 73.2812 134.963 83.5825 128.514 100.291C126.554 104.852 125.57 109.773 125.625 114.738C125.625 122.966 129.875 128.138 137.036 128.138C142.731 128.138 146.562 125.06 148.845 117.459C152.153 105.064 159.837 98.3016 171.332 98.3016C184.103 98.3016 192.897 107.64 192.897 120.998C192.897 132.786 188.542 139.528 175.687 148.74C162.726 157.806 156.298 167.877 156.298 183.078V185.402C156.298 194.363 160.653 201 168.547 201Z" fill="#27595B"/>
<path d="M215.088 52.6128L195.804 32.8478L210.775 18.2334L223.798 31.5706L242.432 31.3403C250.498 31.2448 258.502 32.7631 265.973 35.806C273.444 38.8488 280.231 43.3548 285.935 49.0588C291.639 54.7628 296.145 61.5498 299.188 69.0207C302.23 76.4915 303.749 84.4953 303.653 92.5615L303.444 111.196L316.76 124.219C322.528 129.855 327.11 136.586 330.239 144.018C333.368 151.451 334.98 159.433 334.98 167.497C334.98 175.561 333.368 183.543 330.239 190.975C327.11 198.407 322.528 205.139 316.76 210.775L303.423 223.798L303.653 242.432C303.749 250.498 302.23 258.502 299.188 265.973C296.145 273.444 291.639 280.231 285.935 285.935C280.231 291.639 273.444 296.145 265.973 299.188C258.502 302.23 250.498 303.749 242.432 303.653L223.798 303.444L210.775 316.76C205.139 322.528 198.407 327.11 190.975 330.239C183.543 333.368 175.561 334.98 167.497 334.98C159.433 334.98 151.451 333.368 144.018 330.239C136.586 327.11 129.855 322.528 124.219 316.76L111.196 303.423L92.5615 303.653C84.4953 303.749 76.4915 302.23 69.0207 299.188C61.5498 296.145 54.7628 291.639 49.0588 285.935C43.3548 280.231 38.8488 273.444 35.806 265.973C32.7631 258.502 31.2448 250.498 31.3403 242.432L31.5496 223.798L18.2334 210.775C12.4659 205.139 7.88315 198.407 4.7543 190.975C1.62545 183.543 0.0136719 175.561 0.0136719 167.497C0.0136719 159.433 1.62545 151.451 4.7543 144.018C7.88315 136.586 12.4659 129.855 18.2334 124.219L31.5706 111.196L31.3403 92.5615C31.2448 84.4953 32.7631 76.4915 35.806 69.0207C38.8488 61.5498 43.3548 54.7628 49.0588 49.0588C54.7628 43.3548 61.5498 38.8488 69.0207 35.806C76.4915 32.7631 84.4953 31.2448 92.5615 31.3403L111.196 31.5496L124.219 18.2334C129.855 12.4659 136.586 7.88315 144.018 4.7543C151.451 1.62545 159.433 0.0136719 167.497 0.0136719C175.561 0.0136719 183.543 1.62545 190.975 4.7543C198.407 7.88315 205.139 12.4659 210.775 18.2334L195.804 32.8478C192.118 29.0745 187.716 26.0763 182.854 24.0292C177.993 21.9821 172.772 20.9276 167.497 20.9276C162.222 20.9276 157.001 21.9821 152.139 24.0292C147.278 26.0763 142.875 29.0745 139.189 32.8478L119.927 52.6128L92.2893 52.2778C87.0168 52.2188 81.7857 53.2142 76.9032 55.2054C72.0208 57.1966 67.5856 60.1435 63.8581 63.8729C60.1306 67.6024 57.186 72.0392 55.1973 76.9226C53.2087 81.8061 52.216 87.0378 52.2778 92.3102L52.6128 119.906L32.8478 139.189C29.0745 142.875 26.0763 147.278 24.0292 152.139C21.9821 157.001 20.9276 162.222 20.9276 167.497C20.9276 172.772 21.9821 177.993 24.0292 182.854C26.0763 187.716 29.0745 192.118 32.8478 195.804L52.6128 215.067L52.2778 242.704C52.2188 247.977 53.2142 253.208 55.2054 258.09C57.1966 262.973 60.1435 267.408 63.8729 271.136C67.6024 274.863 72.0392 277.808 76.9226 279.796C81.8061 281.785 87.0378 282.778 92.3102 282.716L119.906 282.381L139.189 302.146C142.875 305.919 147.278 308.917 152.139 310.964C157.001 313.011 162.222 314.066 167.497 314.066C172.772 314.066 177.993 313.011 182.854 310.964C187.716 308.917 192.118 305.919 195.804 302.146L215.067 282.381L242.704 282.716C247.977 282.775 253.208 281.779 258.09 279.788C262.973 277.797 267.408 274.85 271.136 271.121C274.863 267.391 277.808 262.954 279.796 258.071C281.785 253.188 282.778 247.956 282.716 242.683L282.381 215.088L302.146 195.804C305.919 192.118 308.917 187.716 310.964 182.854C313.011 177.993 314.066 172.772 314.066 167.497C314.066 162.222 313.011 157.001 310.964 152.139C308.917 147.278 305.919 142.875 302.146 139.189L282.381 119.927L282.716 92.2893C282.775 87.0168 281.779 81.7857 279.788 76.9032C277.797 72.0208 274.85 67.5856 271.121 63.8581C267.391 60.1306 262.954 57.186 258.071 55.1973C253.188 53.2087 247.956 52.216 242.683 52.2778L215.088 52.6128Z" fill="#27595B"/>
<path d="M146.583 230.312C146.583 224.76 148.789 219.434 152.716 215.507C156.642 211.581 161.968 209.375 167.521 209.375C173.074 209.375 178.4 211.581 182.326 215.507C186.253 219.434 188.459 224.76 188.459 230.312C188.459 235.865 186.253 241.191 182.326 245.118C178.4 249.044 173.074 251.25 167.521 251.25C161.968 251.25 156.642 249.044 152.716 245.118C148.789 241.191 146.583 235.865 146.583 230.312Z" fill="#27595B"/>
</g>
<defs>
<clipPath id="clip0_44_271">
<rect width="335" height="335" fill="white"/>
</clipPath>
</defs>
</svg>
