<svg width="374" height="215" viewBox="0 0 374 215" fill="none" xmlns="http://www.w3.org/2000/svg">
<path d="M55.1796 89.4998C85.9796 45.8998 149.18 47.4998 240.68 59.4998C286.306 65.4835 305.711 50.5785 317.18 43.3545L372.18 1.99976L332.18 84.4998C332.18 180.86 295.68 177 194.18 207C92.6796 237 16.6796 144 55.1796 89.4998Z" fill="url(#paint0_linear_130_700)" stroke="#292E2E" stroke-width="3"/>
<g filter="url(#filter0_d_130_700)">
<path d="M244.633 108.045L244.36 108.623C243.8 109.868 243.024 110.879 242.032 111.655C241.058 112.413 239.985 112.924 238.812 113.186C238.526 114.115 238.139 114.984 237.651 115.795C237.18 116.587 236.625 117.283 235.986 117.884C235.364 118.484 234.648 118.962 233.837 119.318C233.044 119.674 232.173 119.87 231.224 119.908C229.845 119.963 228.59 119.726 227.457 119.196C226.341 118.647 225.378 117.895 224.569 116.938C223.759 115.964 223.122 114.82 222.657 113.509C222.192 112.179 221.929 110.751 221.868 109.225C221.816 107.897 221.92 106.688 222.181 105.599C222.442 104.492 222.789 103.507 223.221 102.645C223.652 101.764 224.142 100.999 224.69 100.348C225.237 99.6785 225.78 99.1264 226.318 98.6913C226.857 98.2563 227.346 97.9311 227.786 97.7157C228.243 97.4817 228.588 97.3601 228.821 97.3508L229.207 98.2792C228.495 98.8471 227.871 99.6271 227.337 100.619C226.868 101.465 226.455 102.578 226.097 103.959C225.758 105.339 225.628 107.043 225.709 109.072C225.758 110.31 225.922 111.508 226.202 112.666C226.481 113.823 226.862 114.842 227.345 115.721C227.829 116.601 228.403 117.297 229.069 117.81C229.753 118.322 230.507 118.562 231.331 118.529C232.459 118.484 233.372 117.998 234.07 117.071C234.786 116.125 235.291 114.855 235.587 113.261C234.648 113.101 233.747 112.769 232.884 112.264C232.021 111.759 231.251 111.124 230.575 110.36C229.899 109.578 229.343 108.675 228.907 107.649C228.49 106.623 228.257 105.5 228.208 104.279C228.168 103.274 228.259 102.389 228.479 101.625C228.717 100.843 229.041 100.192 229.451 99.6718C229.86 99.1341 230.337 98.7285 230.882 98.455C231.444 98.1628 232.039 98.0042 232.665 97.9792C233.399 97.9498 234.16 98.1352 234.947 98.5352C235.733 98.9173 236.457 99.5176 237.117 100.336C237.776 101.137 238.328 102.158 238.772 103.398C239.216 104.639 239.471 106.094 239.537 107.764C239.562 108.392 239.551 109.013 239.504 109.626C239.457 110.239 239.373 110.836 239.252 111.416C240.102 111.13 240.864 110.695 241.541 110.111C242.235 109.526 242.796 108.766 243.225 107.832L243.498 107.255L244.633 108.045ZM229.972 103.993C230.015 105.052 230.197 106.025 230.519 106.911C230.858 107.778 231.292 108.543 231.821 109.205C232.348 109.849 232.952 110.382 233.633 110.804C234.313 111.227 235.033 111.513 235.792 111.662C235.861 111.156 235.894 110.633 235.891 110.094C235.905 109.536 235.9 108.97 235.877 108.395C235.827 107.121 235.682 105.976 235.445 104.961C235.206 103.928 234.912 103.058 234.561 102.353C234.209 101.63 233.811 101.08 233.365 100.702C232.92 100.324 232.474 100.144 232.026 100.162C231.417 100.187 230.911 100.539 230.508 101.221C230.104 101.884 229.925 102.808 229.972 103.993Z" fill="black"/>
<path d="M253.545 98.7896C253.044 98.8097 252.489 99.0566 251.88 99.5304C251.289 100.004 250.694 100.612 250.096 101.355C249.497 102.08 248.92 102.894 248.364 103.797C247.826 104.7 247.36 105.59 246.964 106.469C246.973 108.051 246.988 109.776 247.009 111.645C247.047 113.514 247.108 115.507 247.193 117.625C247.203 117.894 247.088 118.141 246.845 118.367C246.621 118.574 246.35 118.755 246.033 118.912C245.716 119.05 245.389 119.162 245.051 119.248C244.714 119.333 244.438 119.38 244.223 119.389C243.954 119.399 243.701 119.329 243.461 119.176C243.222 119.024 243.092 118.67 243.069 118.113C243.059 117.844 243.072 117.511 243.11 117.114C243.148 116.699 243.202 116.256 243.273 115.786C243.326 115.316 243.396 114.837 243.485 114.348C243.554 113.842 243.625 113.372 243.697 112.937L243.174 99.7705C243.16 99.4115 243.157 99.1329 243.167 98.9348C243.159 98.7194 243.179 98.5567 243.229 98.4469C243.326 98.1913 243.506 97.9863 243.769 97.832C244.032 97.6776 244.314 97.5585 244.616 97.4745C244.917 97.3726 245.21 97.3069 245.496 97.2775C245.781 97.2481 246.005 97.2302 246.166 97.2238C246.47 97.2116 246.68 97.2841 246.793 97.4414C246.925 97.5979 246.999 97.8826 247.016 98.2955C247.014 98.2417 246.986 98.6832 246.934 99.6202C246.899 100.557 246.89 101.896 246.905 103.64C247.409 102.775 247.959 101.944 248.555 101.147C249.151 100.35 249.777 99.6414 250.434 99.0219C251.091 98.4023 251.77 97.8987 252.472 97.5111C253.192 97.1227 253.928 96.9135 254.68 96.8834C256.023 96.8298 257.025 97.2212 257.686 98.0578C258.346 98.8764 258.705 100.013 258.763 101.467C258.799 102.382 258.777 103.408 258.697 104.544C258.633 105.661 258.545 106.806 258.43 107.979C258.332 109.134 258.243 110.27 258.162 111.388C258.098 112.487 258.084 113.495 258.121 114.41C258.168 115.595 258.558 116.173 259.292 116.143C259.525 116.134 259.789 116.007 260.084 115.761C260.397 115.497 260.772 115.023 261.211 114.341C261.668 113.657 262.205 112.728 262.822 111.552C263.438 110.359 264.166 108.829 265.007 106.961L265.253 106.385L266.387 107.176L266.141 107.752C265.152 109.949 264.265 111.756 263.478 113.171C262.71 114.586 262.001 115.712 261.353 116.546C260.705 117.381 260.091 117.972 259.513 118.319C258.935 118.648 258.35 118.824 257.759 118.848C257.383 118.863 257.005 118.824 256.625 118.731C256.244 118.638 255.906 118.463 255.608 118.205C255.311 117.948 255.064 117.598 254.867 117.156C254.67 116.697 254.557 116.108 254.528 115.39C254.485 114.313 254.509 113.098 254.598 111.746C254.688 110.394 254.796 109.042 254.921 107.688C255.047 106.335 255.158 105.063 255.254 103.872C255.349 102.664 255.382 101.683 255.352 100.929C255.325 100.265 255.161 99.7409 254.859 99.3574C254.556 98.956 254.118 98.7667 253.545 98.7896Z" fill="black"/>
<path d="M89.8352 97.8809C90.4152 101.062 91.2824 103.77 92.4369 106.006C93.5914 108.241 94.9025 110.037 96.3703 111.394C97.8557 112.747 99.4289 113.682 101.09 114.2C102.765 114.696 104.405 114.797 106.009 114.503C107.155 114.293 108.244 113.875 109.277 113.247C110.328 112.616 111.305 111.78 112.208 110.738C113.111 109.695 113.931 108.449 114.669 106.999C115.424 105.546 116.068 103.885 116.602 102.016L116.791 101.406L118.025 102.029L117.835 102.639C117.224 104.778 116.463 106.698 115.552 108.399C114.659 110.096 113.644 111.57 112.506 112.82C111.364 114.052 110.126 115.055 108.792 115.829C107.475 116.6 106.076 117.121 104.596 117.392C103.326 117.625 102.032 117.67 100.713 117.528C99.4148 117.401 98.1355 117.079 96.8753 116.561C95.6294 116.022 94.4203 115.285 93.2478 114.349C92.0929 113.41 91.0276 112.263 90.0519 110.908C89.0729 109.535 88.2099 107.949 87.463 106.15C86.7304 104.33 86.1579 102.29 85.7455 100.027C85.2009 97.0409 84.9547 94.2919 85.0068 91.7804C85.0734 89.248 85.3573 86.9588 85.8586 84.9129C86.3743 82.846 87.069 81.0112 87.9426 79.4083C88.8338 77.8023 89.823 76.4339 90.9102 75.3033C91.9941 74.155 93.148 73.2404 94.3719 72.5596C95.5957 71.8787 96.807 71.4285 98.0056 71.2088C99.5744 70.9213 101.07 70.9303 102.492 71.2359C103.91 71.5238 105.186 72.0753 106.318 72.8905C107.447 73.688 108.405 74.7452 109.192 76.062C109.993 77.358 110.549 78.863 110.862 80.5772C111.162 82.2207 111.188 83.8138 110.941 85.3566C110.712 86.8962 110.274 88.2913 109.628 89.542C108.996 90.7718 108.191 91.805 107.214 92.6415C106.255 93.4747 105.185 93.9995 104.004 94.216C103.211 94.3613 102.445 94.3556 101.706 94.1989C100.967 94.0421 100.295 93.7543 99.6901 93.3355C99.0855 92.9167 98.5657 92.3637 98.1307 91.6763C97.6957 90.989 97.3961 90.1948 97.2317 89.2935C97.0739 88.4276 97.0546 87.5728 97.174 86.7291C97.2902 85.8677 97.4898 85.0641 97.7728 84.3183C98.0525 83.5548 98.3836 82.8732 98.7661 82.2734C99.163 81.6528 99.5632 81.1503 99.9668 80.7659L100.811 81.3508C100.518 81.8428 100.25 82.3668 100.005 82.923C99.7746 83.4583 99.5876 84.0313 99.4439 84.6421C99.297 85.2351 99.2111 85.8627 99.1861 86.5247C99.161 87.1867 99.2162 87.8889 99.3515 88.6311C99.4901 89.391 99.7023 90.0552 99.9881 90.6237C100.292 91.189 100.641 91.6547 101.035 92.0207C101.447 92.3834 101.886 92.6409 102.351 92.7931C102.813 92.9276 103.282 92.9513 103.757 92.8641C104.41 92.7445 105.018 92.3864 105.584 91.7898C106.146 91.1754 106.597 90.3531 106.937 89.3228C107.274 88.2749 107.476 87.0326 107.542 85.596C107.608 84.1595 107.476 82.5399 107.148 80.7374C106.851 79.1116 106.41 77.7406 105.824 76.6244C105.252 75.4873 104.578 74.5881 103.802 73.9269C103.026 73.2656 102.172 72.8286 101.24 72.6157C100.306 72.3852 99.345 72.3604 98.3579 72.5413C97.6528 72.6706 96.8797 72.9766 96.0388 73.4594C95.1946 73.9246 94.361 74.5978 93.538 75.4792C92.7327 76.3573 91.9868 77.4618 91.3005 78.7929C90.611 80.1064 90.0611 81.6864 89.651 83.533C89.2552 85.3587 89.0464 87.4607 89.0247 89.8388C89.0205 92.2136 89.2907 94.8944 89.8352 97.8809Z" fill="black"/>
<path d="M139.098 98.1667L138.909 98.7767C138.528 100.088 137.902 101.198 137.029 102.107C136.171 102.995 135.18 103.651 134.055 104.077C133.902 105.036 133.641 105.951 133.271 106.823C132.916 107.673 132.464 108.441 131.915 109.126C131.384 109.807 130.742 110.382 129.989 110.848C129.254 111.312 128.419 111.629 127.485 111.8C126.127 112.049 124.851 111.991 123.655 111.626C122.473 111.24 121.415 110.63 120.48 109.797C119.541 108.946 118.75 107.904 118.106 106.671C117.459 105.42 116.999 104.043 116.725 102.541C116.486 101.233 116.42 100.022 116.527 98.9064C116.63 97.7735 116.835 96.7498 117.141 95.8352C117.445 94.903 117.823 94.0759 118.274 93.354C118.722 92.6145 119.182 91.9914 119.654 91.4848C120.127 90.9782 120.566 90.5873 120.971 90.3122C121.39 90.0161 121.715 89.8471 121.944 89.8051L122.457 90.6699C121.831 91.3325 121.323 92.1926 120.933 93.2503C120.587 94.1536 120.334 95.314 120.174 96.7313C120.031 98.1455 120.142 99.851 120.506 101.848C120.728 103.067 121.058 104.23 121.497 105.337C121.936 106.444 122.456 107.398 123.058 108.201C123.659 109.004 124.326 109.612 125.057 110.026C125.806 110.437 126.586 110.568 127.397 110.419C128.507 110.216 129.343 109.606 129.905 108.59C130.481 107.553 130.803 106.225 130.872 104.605C129.92 104.579 128.982 104.376 128.057 103.998C127.131 103.62 126.281 103.1 125.504 102.439C124.725 101.76 124.048 100.943 123.473 99.9893C122.916 99.0321 122.528 97.9527 122.309 96.751C122.128 95.7614 122.094 94.8728 122.205 94.0854C122.331 93.2771 122.56 92.5867 122.893 92.0144C123.223 91.4243 123.638 90.9556 124.14 90.608C124.655 90.2396 125.222 89.9988 125.839 89.8857C126.561 89.7533 127.34 89.8297 128.176 90.1149C129.008 90.3825 129.808 90.875 130.576 91.5925C131.342 92.2924 132.031 93.2253 132.644 94.3912C133.258 95.5572 133.714 96.9619 134.014 98.6054C134.126 99.2239 134.202 99.8401 134.241 100.454C134.28 101.068 134.281 101.67 134.243 102.262C135.044 101.859 135.738 101.321 136.326 100.647C136.931 99.97 137.381 99.1389 137.675 98.1536L137.864 97.5437L139.098 98.1667ZM124.015 96.2191C124.205 97.2618 124.522 98.1991 124.965 99.031C125.423 99.842 125.959 100.538 126.575 101.119C127.188 101.683 127.861 102.125 128.594 102.448C129.326 102.77 130.079 102.952 130.852 102.993C130.85 102.482 130.809 101.959 130.73 101.426C130.665 100.872 130.581 100.312 130.478 99.7464C130.25 98.4917 129.946 97.3785 129.569 96.4067C129.188 95.4172 128.775 94.5982 128.328 93.9494C127.879 93.283 127.407 92.7942 126.913 92.4829C126.419 92.1717 125.952 92.0564 125.511 92.1372C124.912 92.247 124.461 92.6676 124.157 93.399C123.85 94.1128 123.802 95.0528 124.015 96.2191Z" fill="black"/>
<path d="M145.075 88.0863C144.563 88.18 144.104 88.456 143.695 88.9143C143.302 89.3518 142.951 89.9273 142.644 90.6411C142.334 91.3371 142.053 92.1464 141.803 93.069C141.566 93.9706 141.341 94.9341 141.127 95.9595L141.185 96.2776C141.416 97.8424 141.664 99.5044 141.93 101.264C142.214 103.02 142.545 104.931 142.922 106.999C142.986 107.352 142.917 107.675 142.716 107.968C142.528 108.24 142.291 108.484 142.002 108.701C141.711 108.901 141.404 109.067 141.082 109.199C140.76 109.331 140.493 109.416 140.282 109.455C140.017 109.504 139.756 109.469 139.498 109.352C139.24 109.235 139.061 108.903 138.961 108.355C138.913 108.09 138.879 107.758 138.861 107.36C138.84 106.943 138.832 106.498 138.836 106.022C138.823 105.55 138.826 105.065 138.844 104.569C138.842 104.058 138.847 103.582 138.857 103.142C138.584 101.64 138.337 100.288 138.118 99.086C137.881 97.8875 137.677 96.82 137.507 95.8834C137.336 94.9467 137.186 94.125 137.057 93.4181C136.911 92.7145 136.791 92.1064 136.697 91.5939C136.543 90.7457 136.447 90.1239 136.412 89.7287C136.355 89.319 136.339 89.0298 136.363 88.861C136.406 88.5975 136.529 88.374 136.732 88.1906C136.953 88.004 137.19 87.8512 137.441 87.732C137.69 87.5952 137.944 87.4937 138.205 87.4276C138.467 87.3615 138.668 87.3155 138.809 87.2897C139.144 87.2283 139.382 87.2851 139.523 87.4601C139.664 87.6351 139.772 87.9258 139.846 88.3323C140.013 89.2512 140.165 90.0818 140.3 90.824C140.436 91.5663 140.553 92.3117 140.653 93.0604C140.843 92.2038 141.094 91.3817 141.406 90.594C141.732 89.7855 142.12 89.0661 142.57 88.4358C143.016 87.7878 143.51 87.2498 144.052 86.8219C144.611 86.3908 145.216 86.1154 145.868 85.9959C146.662 85.8505 147.344 85.8989 147.917 86.141C148.504 86.3622 149 86.7369 149.406 87.2651C149.83 87.7902 150.184 88.4374 150.47 89.2068C150.771 89.9553 151.031 90.7841 151.252 91.6934C151.581 90.7017 151.957 89.7653 152.379 88.8844C152.816 87.9826 153.298 87.1819 153.826 86.4824C154.372 85.7797 154.967 85.1959 155.611 84.7309C156.273 84.2627 156.991 83.9575 157.767 83.8154C159.106 83.5699 160.162 83.8147 160.934 84.5499C161.702 85.2674 162.217 86.3419 162.478 87.7733C162.642 88.6746 162.755 89.6948 162.817 90.834C162.879 91.9732 162.935 93.1316 162.986 94.3094C163.034 95.4695 163.087 96.6102 163.146 97.7318C163.205 98.8533 163.316 99.8646 163.48 100.766C163.68 101.862 164.053 102.359 164.6 102.259C164.882 102.207 165.16 101.983 165.433 101.586C165.704 101.171 165.986 100.572 166.28 99.7871C166.589 98.9818 166.925 97.9796 167.29 96.7806C167.671 95.5783 168.103 94.1479 168.584 92.4892L168.747 91.884L169.98 92.5071L169.818 93.1122C169.158 95.3881 168.582 97.2743 168.09 98.7707C167.615 100.264 167.161 101.47 166.727 102.39C166.291 103.292 165.837 103.95 165.366 104.365C164.913 104.777 164.369 105.041 163.735 105.157C163.364 105.225 162.993 105.238 162.621 105.197C162.25 105.155 161.907 105.026 161.595 104.81C161.282 104.593 161.006 104.278 160.767 103.866C160.524 103.435 160.339 102.867 160.21 102.16C160.016 101.099 159.869 99.8936 159.769 98.5424C159.668 97.1911 159.585 95.8367 159.52 94.479C159.454 93.1213 159.386 91.8463 159.314 90.6541C159.239 89.4443 159.134 88.4682 158.999 87.726C158.88 87.0722 158.644 86.5767 158.291 86.2396C157.934 85.8848 157.474 85.7591 156.91 85.8625C156.346 85.9659 155.796 86.295 155.26 86.8498C154.741 87.4015 154.255 88.084 153.802 88.8975C153.364 89.6901 152.968 90.5662 152.615 91.5258C152.279 92.4822 152.003 93.4184 151.788 94.3345C152.126 96.19 152.405 97.8191 152.624 99.2216C152.84 100.606 153 101.783 153.104 102.75C153.225 103.714 153.284 104.488 153.281 105.073C153.276 105.64 153.229 106.032 153.141 106.249C153.075 106.389 152.946 106.532 152.754 106.676C152.562 106.821 152.34 106.953 152.088 107.072C151.855 107.188 151.617 107.286 151.377 107.367C151.154 107.444 150.981 107.494 150.858 107.517C150.576 107.569 150.315 107.534 150.074 107.414C149.848 107.273 149.69 106.955 149.6 106.46C149.558 106.23 149.519 105.918 149.483 105.523C149.465 105.124 149.448 104.68 149.432 104.19C149.415 103.7 149.401 103.173 149.389 102.609C149.378 102.045 149.364 101.472 149.349 100.89C149.27 100.357 149.18 99.7616 149.078 99.1045C148.977 98.4474 148.877 97.7991 148.778 97.1597C148.677 96.5026 148.573 95.8825 148.466 95.2993C148.374 94.6952 148.29 94.1811 148.213 93.757C148.048 92.8557 147.872 92.0388 147.684 91.3063C147.495 90.5738 147.274 89.957 147.018 89.4559C146.781 88.9516 146.504 88.5823 146.188 88.348C145.869 88.096 145.498 88.0088 145.075 88.0863Z" fill="black"/>
<path d="M175.957 82.4267C175.446 82.5204 174.986 82.7964 174.578 83.2547C174.184 83.6921 173.834 84.2677 173.527 84.9814C173.216 85.6775 172.936 86.4868 172.685 87.4093C172.449 88.311 172.224 89.2745 172.01 90.2998L172.068 90.6179C172.299 92.1827 172.547 93.8448 172.813 95.604C173.097 97.36 173.427 99.2718 173.804 101.339C173.869 101.693 173.8 102.016 173.598 102.308C173.411 102.58 173.173 102.825 172.885 103.042C172.593 103.241 172.287 103.407 171.965 103.539C171.643 103.671 171.376 103.757 171.164 103.795C170.9 103.844 170.639 103.81 170.381 103.693C170.122 103.576 169.943 103.243 169.843 102.695C169.795 102.43 169.762 102.098 169.744 101.7C169.723 101.284 169.714 100.838 169.719 100.362C169.705 99.8899 169.708 99.4054 169.727 98.9089C169.725 98.398 169.729 97.9223 169.74 97.4821C169.466 95.9799 169.22 94.628 169 93.4263C168.764 92.2279 168.56 91.1603 168.389 90.2237C168.218 89.2871 168.069 88.4654 167.94 87.7585C167.793 87.0549 167.673 86.4468 167.58 85.9343C167.425 85.086 167.33 84.4643 167.294 84.0691C167.238 83.6594 167.222 83.3702 167.245 83.2014C167.288 82.9379 167.412 82.7144 167.615 82.531C167.836 82.3444 168.072 82.1916 168.324 82.0724C168.572 81.9356 168.827 81.8341 169.088 81.768C169.349 81.7019 169.55 81.6559 169.691 81.63C170.026 81.5687 170.264 81.6255 170.405 81.8005C170.547 81.9755 170.654 82.2662 170.728 82.6727C170.896 83.5916 171.047 84.4222 171.183 85.1644C171.318 85.9066 171.436 86.6521 171.536 87.4008C171.726 86.5442 171.977 85.722 172.288 84.9344C172.615 84.1259 173.003 83.4064 173.452 82.7761C173.899 82.1282 174.393 81.5902 174.934 81.1623C175.493 80.7311 176.099 80.4558 176.751 80.3363C177.544 80.1909 178.227 80.2393 178.799 80.4813C179.386 80.7025 179.883 81.0773 180.289 81.6055C180.712 82.1305 181.067 82.7777 181.353 83.5471C181.653 84.2956 181.914 85.1245 182.134 86.0338C182.464 85.042 182.839 84.1057 183.262 83.2248C183.698 82.3229 184.181 81.5223 184.709 80.8228C185.255 80.1201 185.85 79.5363 186.494 79.0713C187.155 78.6031 187.874 78.2979 188.649 78.1558C189.989 77.9103 191.044 78.1551 191.816 78.8903C192.584 79.6078 193.099 80.6823 193.36 82.1137C193.524 83.015 193.638 84.0352 193.7 85.1744C193.762 86.3135 193.818 87.472 193.869 88.6498C193.916 89.8098 193.97 90.9506 194.028 92.0721C194.087 93.1936 194.199 94.205 194.363 95.1063C194.563 96.2019 194.936 96.6997 195.482 96.5996C195.764 96.5479 196.042 96.3235 196.316 95.9263C196.586 95.5115 196.869 94.9119 197.163 94.1275C197.471 93.3222 197.808 92.32 198.172 91.121C198.554 89.9187 198.985 88.4882 199.466 86.8295L199.629 86.2244L200.863 86.8475L200.7 87.4526C200.04 89.7285 199.464 91.6146 198.972 93.1111C198.498 94.6042 198.043 95.8106 197.61 96.7301C197.173 97.6319 196.72 98.2904 196.249 98.7054C195.796 99.1171 195.252 99.3812 194.617 99.4975C194.247 99.5653 193.876 99.5785 193.504 99.5371C193.132 99.4957 192.79 99.3666 192.477 99.15C192.164 98.9334 191.888 98.6187 191.649 98.206C191.407 97.7756 191.221 97.207 191.092 96.5001C190.899 95.4398 190.752 94.234 190.651 92.8828C190.551 91.5315 190.468 90.1771 190.402 88.8194C190.337 87.4617 190.268 86.1867 190.197 84.9945C190.122 83.7847 190.017 82.8086 189.881 82.0664C189.762 81.4125 189.526 80.9171 189.173 80.58C188.817 80.2252 188.357 80.0995 187.793 80.2029C187.229 80.3062 186.679 80.6354 186.142 81.1902C185.623 81.7418 185.138 82.4244 184.685 83.2379C184.246 84.0305 183.851 84.9065 183.497 85.8662C183.162 86.8225 182.886 87.7588 182.671 88.6749C183.009 90.5304 183.288 92.1595 183.507 93.562C183.723 94.9469 183.883 96.1229 183.986 97.0901C184.107 98.0541 184.167 98.8285 184.164 99.4134C184.158 99.9806 184.111 100.373 184.023 100.59C183.958 100.73 183.829 100.872 183.637 101.017C183.444 101.162 183.223 101.293 182.971 101.413C182.737 101.529 182.5 101.627 182.26 101.707C182.037 101.785 181.864 101.835 181.741 101.857C181.459 101.909 181.197 101.875 180.957 101.754C180.731 101.613 180.572 101.295 180.482 100.8C180.44 100.571 180.402 100.258 180.366 99.8629C180.348 99.4644 180.331 99.0202 180.314 98.5301C180.298 98.04 180.284 97.513 180.272 96.949C180.26 96.385 180.247 95.8122 180.232 95.2306C180.153 94.6972 180.062 94.1019 179.961 93.4449C179.859 92.7878 179.759 92.1395 179.661 91.5001C179.559 90.843 179.455 90.2229 179.349 89.6397C179.257 89.0356 179.172 88.5215 179.095 88.0974C178.931 87.1961 178.754 86.3792 178.566 85.6467C178.378 84.9142 178.156 84.2973 177.901 83.7963C177.663 83.2919 177.386 82.9226 177.071 82.6883C176.751 82.4364 176.38 82.3492 175.957 82.4267Z" fill="black"/>
<path d="M209.089 93.7498C209.706 93.6367 210.303 93.363 210.879 92.9286C211.474 92.491 212.036 91.8767 212.565 91.0856C213.113 90.2913 213.642 89.2994 214.154 88.1099C214.663 86.9027 215.152 85.489 215.621 83.8689L215.784 83.2638L217.018 83.8869L216.855 84.492C216.248 86.5573 215.591 88.3487 214.884 89.8662C214.195 91.3805 213.469 92.6458 212.707 93.662C211.963 94.675 211.186 95.4567 210.375 96.007C209.565 96.5573 208.754 96.9067 207.943 97.0553C206.797 97.2653 205.732 97.2141 204.746 96.9017C203.76 96.5893 202.884 96.0832 202.119 95.3833C201.35 94.6658 200.709 93.7971 200.195 92.7773C199.661 91.743 199.284 90.625 199.065 89.4233C198.717 87.5148 198.665 85.7344 198.911 84.0824C199.135 82.4159 199.578 80.9469 200.238 79.6753C200.917 78.4004 201.755 77.352 202.753 76.5299C203.75 75.7079 204.848 75.187 206.047 74.9674C207.263 74.7445 208.245 74.8842 208.992 75.3864C209.757 75.8854 210.225 76.6032 210.396 77.5398C210.56 78.4411 210.46 79.3361 210.093 80.2251C209.724 81.0963 209.168 81.9926 208.425 82.9141C207.697 83.8146 206.827 84.7409 205.817 85.6931C204.803 86.6276 203.733 87.6 202.605 88.6101C202.896 89.5065 203.261 90.3071 203.699 91.0121C204.134 91.6994 204.631 92.275 205.189 92.7388C205.744 93.185 206.348 93.5033 207.002 93.6939C207.653 93.8669 208.349 93.8855 209.089 93.7498ZM207.236 78.9407C207.107 78.2338 206.812 77.7127 206.35 77.3773C205.906 77.0387 205.41 76.9195 204.864 77.0196C204.405 77.1036 203.951 77.3603 203.501 77.7898C203.048 78.2015 202.676 78.8085 202.385 79.6105C202.091 80.395 201.904 81.3697 201.825 82.5347C201.746 83.6997 201.852 85.0774 202.142 86.6679L202.253 87.2776C202.794 86.8497 203.38 86.3132 204.009 85.6683C204.653 85.0025 205.234 84.2933 205.752 83.5408C206.271 82.7884 206.677 82.0199 206.971 81.2355C207.28 80.4302 207.368 79.6653 207.236 78.9407Z" fill="black"/>
<path d="M180.093 137.912C181.473 137.689 182.709 137.673 183.801 137.865C184.907 138.055 185.863 138.412 186.669 138.937C187.473 139.449 188.116 140.102 188.597 140.898C189.09 141.678 189.414 142.547 189.568 143.505C189.737 144.556 189.72 145.595 189.518 146.624C189.327 147.638 188.989 148.627 188.505 149.593C188.033 150.556 187.441 151.484 186.727 152.377C186.013 153.271 185.228 154.107 184.374 154.887C183.519 155.666 182.614 156.386 181.658 157.045C180.715 157.702 179.767 158.279 178.812 158.774C179.631 159.297 180.401 159.937 181.121 160.694C181.84 161.438 182.542 162.245 183.226 163.117C183.909 163.976 184.589 164.862 185.267 165.776C185.945 166.69 186.645 167.574 187.367 168.426C188.088 169.265 188.847 170.05 189.645 170.78C190.456 171.509 191.337 172.117 192.286 172.605C193.252 173.104 194.294 173.448 195.413 173.635C196.534 173.836 197.778 173.826 199.145 173.606L199.356 174.411C199.19 174.479 198.996 174.544 198.775 174.607C198.593 174.664 198.364 174.721 198.088 174.779C197.814 174.851 197.497 174.916 197.139 174.974C195.414 175.252 193.876 175.296 192.525 175.105C191.176 174.927 189.969 174.577 188.905 174.053C187.856 173.54 186.928 172.891 186.121 172.107C185.317 171.336 184.583 170.5 183.921 169.597C183.27 168.679 182.676 167.737 182.14 166.773C181.601 165.796 181.069 164.858 180.544 163.96C180.03 163.047 179.5 162.211 178.957 161.453C178.424 160.679 177.832 160.045 177.18 159.55C176.926 159.659 176.669 159.755 176.41 159.838C176.164 159.919 175.919 159.999 175.673 160.08C175.814 161.04 175.927 161.874 176.014 162.584C176.112 163.278 176.191 163.893 176.25 164.429C176.307 164.952 176.347 165.416 176.371 165.822C176.396 166.227 176.411 166.621 176.418 167.002C176.439 168.063 176.369 168.982 176.208 169.758C176.045 170.522 175.802 171.168 175.479 171.698C175.153 172.215 174.749 172.621 174.266 172.918C173.794 173.199 173.252 173.388 172.642 173.487C171.78 173.626 170.93 173.505 170.092 173.121C169.268 172.736 168.503 172.088 167.799 171.179C167.095 170.269 166.465 169.101 165.909 167.676C165.366 166.249 164.939 164.565 164.627 162.622C164.299 160.587 164.205 158.603 164.343 156.67C164.48 154.724 164.817 152.888 165.357 151.163C165.908 149.423 166.649 147.809 167.58 146.321C168.511 144.833 169.6 143.518 170.846 142.375C172.102 141.216 173.507 140.259 175.06 139.503C176.624 138.732 178.301 138.201 180.093 137.912ZM170.991 159.281C170.935 158.935 171.021 158.621 171.248 158.339C171.486 158.041 171.831 157.814 172.282 157.66C172.046 156.36 171.821 155.175 171.608 154.104C171.395 153.033 171.212 152.107 171.06 151.327C170.872 150.415 170.707 149.596 170.562 148.869C170.642 148.774 170.738 148.69 170.849 148.618C170.946 148.547 171.065 148.48 171.204 148.417C171.344 148.353 171.52 148.305 171.732 148.27C172.343 148.172 172.852 148.205 173.26 148.371C173.665 148.524 173.91 148.86 173.993 149.379C174.246 150.948 174.48 152.405 174.696 153.748C174.91 155.079 175.097 156.331 175.259 157.506C175.703 157.557 176.132 157.645 176.547 157.769C176.973 157.877 177.376 158.017 177.758 158.187C178.925 157.657 180.075 156.98 181.209 156.156C182.342 155.331 183.323 154.361 184.15 153.244C184.989 152.112 185.608 150.839 186.007 149.423C186.417 147.992 186.482 146.412 186.204 144.683C186.023 143.552 185.708 142.613 185.262 141.867C184.828 141.118 184.305 140.534 183.693 140.114C183.079 139.681 182.388 139.404 181.62 139.282C180.865 139.159 180.083 139.162 179.273 139.293C177.92 139.512 176.619 139.927 175.369 140.538C174.131 141.134 172.992 141.925 171.953 142.912C170.927 143.897 170.021 145.08 169.236 146.463C168.465 147.843 167.854 149.422 167.405 151.201C166.969 152.977 166.722 154.955 166.664 157.134C166.606 159.314 166.786 161.7 167.203 164.294C167.384 165.425 167.614 166.514 167.891 167.561C168.18 168.592 168.523 169.499 168.921 170.281C169.317 171.049 169.773 171.644 170.29 172.066C170.82 172.485 171.417 172.641 172.08 172.534C172.439 172.476 172.765 172.348 173.06 172.15C173.355 171.953 173.586 171.608 173.752 171.117C173.916 170.613 174.002 169.924 174.011 169.049C174.018 168.161 173.906 166.998 173.675 165.562C173.592 165.043 173.518 164.584 173.454 164.185C173.387 163.772 173.324 163.38 173.264 163.008C173.202 162.622 173.134 162.237 173.059 161.854C172.997 161.468 172.921 161.043 172.833 160.58C172.31 160.542 171.887 160.412 171.566 160.191C171.245 159.97 171.053 159.667 170.991 159.281ZM172.006 159.117C172.027 159.25 172.065 159.36 172.12 159.446C172.188 159.531 172.36 159.585 172.636 159.609L172.486 158.671C172.14 158.808 171.98 158.957 172.006 159.117ZM175.509 159.062C175.615 159.045 175.714 159.022 175.805 158.994C175.909 158.964 176.012 158.927 176.113 158.883C175.997 158.833 175.881 158.791 175.766 158.755C175.665 158.717 175.558 158.686 175.445 158.663L175.509 159.062Z" fill="black"/>
<path d="M198.331 167.022C198.796 166.947 199.248 166.752 199.687 166.435C200.139 166.116 200.57 165.664 200.98 165.08C201.403 164.493 201.815 163.757 202.218 162.873C202.618 161.976 203.007 160.924 203.385 159.716L203.516 159.265L204.432 159.752L204.3 160.203C203.812 161.742 203.292 163.075 202.738 164.202C202.197 165.326 201.633 166.264 201.046 167.014C200.472 167.762 199.877 168.335 199.26 168.735C198.644 169.135 198.03 169.384 197.42 169.483C196.558 169.622 195.759 169.567 195.025 169.317C194.29 169.067 193.642 168.674 193.079 168.137C192.514 167.587 192.047 166.926 191.678 166.153C191.293 165.369 191.028 164.525 190.883 163.62C190.652 162.184 190.641 160.848 190.851 159.613C191.045 158.367 191.4 157.272 191.916 156.329C192.444 155.384 193.089 154.611 193.85 154.01C194.611 153.41 195.443 153.037 196.345 152.891C197.261 152.743 197.995 152.863 198.547 153.251C199.113 153.638 199.452 154.183 199.566 154.888C199.675 155.567 199.585 156.236 199.297 156.897C199.006 157.544 198.575 158.208 198.003 158.887C197.443 159.551 196.777 160.232 196.004 160.93C195.229 161.614 194.411 162.327 193.55 163.066C193.754 163.743 194.015 164.349 194.333 164.885C194.648 165.407 195.011 165.846 195.423 166.203C195.832 166.546 196.28 166.794 196.767 166.948C197.253 167.088 197.774 167.112 198.331 167.022ZM197.174 155.889C197.089 155.357 196.875 154.961 196.534 154.703C196.207 154.442 195.837 154.344 195.426 154.411C195.081 154.467 194.736 154.652 194.392 154.967C194.046 155.268 193.757 155.718 193.526 156.315C193.294 156.898 193.138 157.626 193.061 158.498C192.983 159.371 193.041 160.405 193.233 161.603L193.307 162.061C193.72 161.749 194.167 161.356 194.649 160.882C195.142 160.393 195.589 159.871 195.989 159.315C196.39 158.759 196.707 158.189 196.94 157.605C197.184 157.006 197.262 156.434 197.174 155.889Z" fill="black"/>
<path d="M203.831 161.732C203.605 160.322 203.43 158.897 203.307 157.457C203.184 156.016 203.092 154.55 203.029 153.059L201.218 153.352L201.241 152.1L202.992 151.817C202.96 150.43 202.928 149.043 202.895 147.656C202.874 146.254 202.833 144.855 202.772 143.459L204.802 143.131C204.822 143.428 204.851 143.86 204.888 144.427C204.936 144.979 204.985 145.626 205.036 146.368C205.099 147.095 205.173 147.895 205.259 148.769C205.343 149.628 205.43 150.508 205.52 151.408L209.381 150.784L209.378 152.033L205.636 152.638C205.705 153.405 205.778 154.157 205.856 154.895C205.934 155.633 206.006 156.338 206.074 157.01C206.152 157.666 206.229 158.274 206.306 158.835C206.38 159.382 206.449 159.856 206.514 160.255C206.676 161.266 206.838 162.106 207.001 162.776C207.176 163.444 207.357 163.974 207.542 164.367C207.741 164.758 207.948 165.025 208.161 165.168C208.388 165.309 208.627 165.359 208.879 165.318C209.211 165.264 209.549 165.039 209.894 164.642C210.25 164.23 210.6 163.702 210.946 163.06C211.292 162.417 211.63 161.68 211.959 160.849C212.286 160.004 212.592 159.116 212.878 158.182L213.01 157.731L213.925 158.218L213.793 158.669C213.382 160.005 212.95 161.214 212.498 162.297C212.059 163.378 211.604 164.311 211.131 165.097C210.656 165.87 210.17 166.488 209.673 166.95C209.173 167.399 208.665 167.666 208.147 167.749C207.63 167.833 207.146 167.788 206.696 167.615C206.26 167.44 205.861 167.116 205.499 166.642C205.134 166.155 204.813 165.511 204.535 164.71C204.256 163.909 204.022 162.916 203.831 161.732Z" fill="black"/>
<path d="M212.898 158.179L213.029 157.728C213.164 157.297 213.277 156.855 213.368 156.404C213.472 155.951 213.554 155.528 213.613 155.136C213.671 154.731 213.709 154.377 213.728 154.073C213.745 153.757 213.754 153.517 213.755 153.353C213.404 153.368 213.058 153.336 212.719 153.254C212.379 153.172 212.071 153.038 211.796 152.85C211.521 152.663 211.292 152.427 211.11 152.142C210.915 151.86 210.787 151.526 210.725 151.14C210.675 150.834 210.685 150.553 210.752 150.296C210.82 150.04 210.934 149.817 211.094 149.627C211.241 149.44 211.421 149.288 211.633 149.171C211.831 149.044 212.049 148.961 212.288 148.922C212.606 148.871 212.895 148.892 213.155 148.987C213.416 149.081 213.644 149.229 213.839 149.429C214.033 149.616 214.193 149.85 214.319 150.129C214.444 150.396 214.531 150.682 214.58 150.988C214.951 150.928 215.341 150.81 215.748 150.635C216.169 150.458 216.589 150.274 217.007 150.084C217.424 149.88 217.836 149.691 218.243 149.516C218.651 149.341 219.034 149.224 219.392 149.166C219.697 149.117 219.953 149.144 220.16 149.247C220.365 149.337 220.491 149.528 220.538 149.82C220.573 150.033 220.563 150.396 220.509 150.91C220.469 151.422 220.408 152.018 220.327 152.7C220.246 153.382 220.155 154.127 220.054 154.935C219.963 155.727 219.888 156.531 219.829 157.346C219.767 158.147 219.729 158.924 219.714 159.678C219.712 160.428 219.757 161.09 219.849 161.662C219.964 162.38 220.122 162.853 220.322 163.08C220.522 163.307 220.827 163.387 221.239 163.321C221.411 163.293 221.612 163.185 221.84 162.998C222.08 162.796 222.35 162.445 222.651 161.946C222.95 161.434 223.285 160.724 223.657 159.818C224.039 158.897 224.46 157.703 224.919 156.237L225.05 155.785L225.966 156.272L225.834 156.723C225.295 158.448 224.795 159.873 224.337 160.998C223.878 162.123 223.431 163.028 222.996 163.712C222.575 164.394 222.152 164.893 221.726 165.207C221.298 165.508 220.852 165.696 220.387 165.771C219.604 165.898 218.919 165.702 218.332 165.182C217.745 164.663 217.351 163.778 217.15 162.528C217.041 161.85 217.02 161.129 217.088 160.368C217.157 159.606 217.272 158.844 217.435 158.08C217.596 157.304 217.793 156.535 218.024 155.774C218.256 155.014 218.474 154.296 218.679 153.622C218.895 152.932 219.085 152.294 219.249 151.707C219.413 151.121 219.516 150.613 219.555 150.184L219.417 150.084C219.204 150.118 218.937 150.277 218.615 150.561C218.294 150.845 217.931 151.17 217.527 151.535C217.134 151.885 216.705 152.228 216.242 152.562C215.778 152.896 215.292 153.132 214.783 153.268C214.787 153.459 214.771 153.741 214.736 154.115C214.714 154.487 214.665 154.905 214.59 155.367C214.514 155.83 214.421 156.309 214.31 156.804C214.199 157.3 214.078 157.77 213.945 158.215L213.813 158.666L212.898 158.179ZM212.587 150.02C212.467 150.04 212.374 150.096 212.307 150.188C212.241 150.281 212.216 150.381 212.233 150.487C212.258 150.647 212.321 150.78 212.42 150.887C212.516 150.98 212.631 151.057 212.763 151.118C212.893 151.165 213.021 151.199 213.147 151.22C213.284 151.225 213.399 151.22 213.492 151.205C213.432 150.832 213.323 150.536 213.165 150.316C213.005 150.082 212.812 149.984 212.587 150.02Z" fill="black"/>
<path d="M241.828 153.709L241.676 154.163C241.37 155.141 240.883 155.963 240.215 156.631C239.557 157.283 238.804 157.759 237.953 158.061C237.824 158.778 237.614 159.46 237.323 160.107C237.043 160.739 236.692 161.308 236.27 161.813C235.861 162.316 235.37 162.736 234.798 163.074C234.24 163.41 233.609 163.635 232.906 163.748C231.884 163.914 230.928 163.85 230.037 163.557C229.157 163.249 228.373 162.775 227.684 162.136C226.994 161.483 226.417 160.689 225.954 159.754C225.488 158.806 225.165 157.766 224.983 156.636C224.825 155.651 224.794 154.742 224.891 153.907C224.986 153.059 225.156 152.295 225.401 151.614C225.643 150.92 225.939 150.306 226.289 149.771C226.636 149.224 226.991 148.764 227.353 148.392C227.715 148.019 228.05 147.733 228.359 147.533C228.678 147.318 228.924 147.196 229.096 147.168L229.467 147.825C228.988 148.312 228.593 148.949 228.284 149.736C228.011 150.407 227.803 151.274 227.66 152.334C227.531 153.392 227.587 154.673 227.829 156.176C227.976 157.094 228.206 157.971 228.517 158.808C228.829 159.644 229.204 160.368 229.643 160.98C230.081 161.591 230.571 162.058 231.113 162.38C231.668 162.7 232.251 162.81 232.861 162.712C233.697 162.577 234.334 162.132 234.771 161.379C235.219 160.611 235.482 159.62 235.559 158.407C234.845 158.372 234.145 158.205 233.457 157.907C232.769 157.609 232.139 157.205 231.568 156.697C230.994 156.176 230.499 155.553 230.083 154.829C229.68 154.102 229.406 153.287 229.261 152.382C229.141 151.637 229.129 150.971 229.225 150.382C229.332 149.778 229.515 149.264 229.773 148.84C230.03 148.403 230.349 148.058 230.73 147.805C231.123 147.537 231.551 147.365 232.015 147.29C232.559 147.202 233.142 147.272 233.764 147.499C234.384 147.713 234.976 148.095 235.541 148.645C236.104 149.182 236.606 149.892 237.048 150.776C237.489 151.66 237.81 152.72 238.008 153.957C238.083 154.423 238.131 154.886 238.15 155.347C238.17 155.808 238.161 156.26 238.123 156.703C238.73 156.413 239.259 156.021 239.71 155.525C240.175 155.027 240.525 154.411 240.761 153.676L240.912 153.222L241.828 153.709ZM230.549 152.01C230.675 152.795 230.898 153.503 231.217 154.134C231.547 154.749 231.939 155.28 232.391 155.725C232.842 156.157 233.34 156.5 233.884 156.753C234.428 157.006 234.99 157.154 235.569 157.197C235.575 156.814 235.553 156.422 235.502 156.021C235.462 155.604 235.408 155.183 235.34 154.757C235.188 153.813 234.978 152.973 234.71 152.239C234.44 151.491 234.143 150.87 233.819 150.377C233.492 149.87 233.146 149.496 232.781 149.255C232.415 149.013 232.066 148.92 231.735 148.973C231.284 149.046 230.938 149.354 230.699 149.898C230.458 150.428 230.408 151.132 230.549 152.01Z" fill="black"/>
<path d="M249.843 156.569C249.793 156.686 249.724 156.889 249.634 157.176C249.555 157.448 249.442 157.76 249.294 158.111C249.16 158.461 248.988 158.83 248.778 159.218C248.582 159.605 248.34 159.965 248.053 160.298C247.766 160.63 247.432 160.923 247.051 161.176C246.683 161.427 246.253 161.591 245.762 161.671C245.378 161.733 244.967 161.718 244.53 161.624C244.093 161.531 243.661 161.301 243.234 160.933C242.821 160.563 242.443 160.031 242.099 159.335C241.754 158.627 241.487 157.687 241.299 156.517C241.119 155.399 240.98 154.276 240.88 153.145C240.777 152.002 240.705 150.956 240.661 150.008C240.631 149.057 240.618 148.261 240.624 147.619C240.63 146.976 240.648 146.584 240.68 146.443C240.714 146.314 240.803 146.191 240.947 146.072C241.091 145.953 241.259 145.851 241.449 145.766C241.653 145.678 241.859 145.604 242.067 145.543C242.288 145.48 242.478 145.436 242.637 145.41C242.85 145.376 243.024 145.402 243.161 145.489C243.31 145.574 243.406 145.743 243.446 145.996C243.466 146.115 243.478 146.359 243.482 146.727C243.498 147.079 243.513 147.513 243.528 148.03C243.543 148.546 243.56 149.116 243.579 149.741C243.611 150.364 243.645 150.999 243.681 151.649C243.716 152.285 243.756 152.919 243.804 153.553C243.862 154.172 243.932 154.733 244.014 155.239C244.247 156.689 244.572 157.742 244.991 158.397C245.423 159.051 245.997 159.32 246.713 159.204C247.324 159.105 247.869 158.56 248.349 157.568C248.843 156.574 249.185 155.188 249.376 153.41C249.327 152.681 249.263 151.907 249.186 151.087C249.12 150.251 249.054 149.463 248.99 148.723C248.923 147.97 248.862 147.297 248.808 146.705C248.767 146.112 248.746 145.685 248.745 145.426C248.755 145.233 248.837 145.063 248.99 144.916C249.141 144.755 249.317 144.624 249.519 144.523C249.732 144.407 249.936 144.319 250.13 144.26C250.336 144.186 250.492 144.141 250.598 144.123C250.824 144.087 250.985 144.116 251.082 144.209C251.19 144.287 251.261 144.433 251.295 144.645C251.325 144.832 251.363 145.194 251.408 145.733C251.465 146.256 251.524 146.874 251.584 147.588C251.655 148.286 251.729 149.038 251.804 149.845C251.879 150.651 251.95 151.432 252.017 152.185C252.095 152.923 252.162 153.595 252.218 154.2C252.288 154.802 252.347 155.257 252.397 155.563C252.542 156.467 252.703 157.171 252.879 157.675C253.069 158.177 253.336 158.4 253.681 158.344C253.933 158.303 254.179 158.1 254.42 157.733C254.672 157.351 254.923 156.84 255.174 156.199C255.438 155.556 255.712 154.802 255.995 153.937C256.275 153.059 256.578 152.103 256.901 151.068L257.033 150.617L257.948 151.104L257.817 151.555C257.383 152.921 257.001 154.143 256.67 155.22C256.351 156.282 256.027 157.187 255.698 157.936C255.369 158.685 255.008 159.276 254.615 159.708C254.219 160.127 253.743 160.381 253.186 160.471C252.668 160.555 252.221 160.525 251.844 160.381C251.48 160.235 251.169 159.992 250.91 159.652C250.651 159.311 250.432 158.883 250.254 158.366C250.089 157.846 249.952 157.248 249.843 156.569Z" fill="black"/>
<path d="M259.412 143.948C259.495 144.467 259.554 145.133 259.59 145.946C259.639 146.757 259.689 147.663 259.741 148.664C259.804 149.651 259.879 150.71 259.966 151.842C260.066 152.972 260.209 154.116 260.395 155.273C260.545 156.204 260.801 156.825 261.164 157.135C261.525 157.431 261.971 157.537 262.501 157.451C262.873 157.391 263.235 157.23 263.588 156.968C263.94 156.707 264.261 156.375 264.551 155.973C264.853 155.57 265.119 155.104 265.347 154.575C265.575 154.047 265.764 153.485 265.913 152.887C265.082 152.544 264.323 151.889 263.636 150.921C262.948 149.941 262.473 148.639 262.212 147.016C262.082 146.205 262.058 145.506 262.141 144.919C262.221 144.32 262.372 143.818 262.593 143.413C262.827 143.007 263.11 142.695 263.443 142.478C263.773 142.247 264.124 142.101 264.496 142.041C264.827 141.988 265.163 142.002 265.503 142.083C265.843 142.165 266.157 142.339 266.445 142.607C266.731 142.861 266.986 143.222 267.211 143.691C267.436 144.159 267.607 144.753 267.722 145.471C267.867 146.375 267.918 147.411 267.875 148.578C267.842 149.73 267.703 150.899 267.458 152.085C267.524 152.074 267.592 152.07 267.66 152.073C267.729 152.075 267.796 152.071 267.863 152.06C268.606 151.94 269.197 151.599 269.638 151.037C270.089 150.459 270.455 149.724 270.733 148.833L270.865 148.382L271.78 148.868L271.649 149.32C271.285 150.443 270.766 151.325 270.094 151.966C269.432 152.592 268.703 152.969 267.907 153.097C267.787 153.117 267.654 153.131 267.506 153.142C267.371 153.15 267.268 153.146 267.197 153.13C267.001 153.858 266.746 154.554 266.431 155.219C266.116 155.884 265.742 156.484 265.311 157.017C264.891 157.536 264.403 157.976 263.849 158.339C263.308 158.699 262.706 158.933 262.042 159.04C261.498 159.128 260.981 159.13 260.491 159.045C259.999 158.947 259.539 158.708 259.11 158.327C258.692 157.93 258.323 157.369 258.002 156.643C257.679 155.903 257.421 154.935 257.228 153.738C257.143 153.206 257.061 152.612 256.983 151.956C256.902 151.286 256.834 150.608 256.778 149.921C256.709 149.236 256.655 148.563 256.617 147.9C256.565 147.24 256.529 146.638 256.51 146.095C256.489 145.539 256.482 145.076 256.491 144.706C256.498 144.323 256.525 144.073 256.575 143.956C256.687 143.638 256.92 143.395 257.274 143.229C257.627 143.049 257.975 142.931 258.32 142.876C258.559 142.837 258.779 142.89 258.979 143.035C259.193 143.178 259.337 143.482 259.412 143.948ZM263.32 146.919C263.525 148.196 263.884 149.244 264.397 150.062C264.92 150.864 265.501 151.425 266.138 151.745C266.295 150.86 266.381 149.959 266.397 149.042C266.424 148.11 266.372 147.231 266.239 146.407C266.153 145.875 266.035 145.436 265.885 145.092C265.745 144.733 265.591 144.451 265.422 144.246C265.253 144.041 265.068 143.907 264.867 143.844C264.68 143.779 264.5 143.76 264.327 143.788C264.142 143.818 263.971 143.9 263.816 144.035C263.658 144.156 263.525 144.341 263.415 144.591C263.319 144.838 263.254 145.156 263.221 145.543C263.201 145.929 263.234 146.387 263.32 146.919Z" fill="black"/>
<path d="M277.82 154.177C278.285 154.102 278.737 153.906 279.176 153.589C279.628 153.271 280.059 152.819 280.469 152.234C280.892 151.647 281.304 150.912 281.707 150.028C282.107 149.131 282.496 148.078 282.874 146.871L283.005 146.42L283.921 146.907L283.789 147.358C283.301 148.897 282.781 150.23 282.227 151.356C281.686 152.481 281.122 153.418 280.535 154.168C279.961 154.916 279.366 155.49 278.749 155.89C278.133 156.29 277.519 156.539 276.909 156.638C276.047 156.777 275.248 156.722 274.514 156.472C273.779 156.222 273.131 155.829 272.568 155.292C272.003 154.742 271.536 154.08 271.167 153.307C270.782 152.523 270.517 151.679 270.372 150.775C270.141 149.338 270.13 148.002 270.34 146.767C270.534 145.521 270.889 144.427 271.405 143.484C271.933 142.539 272.578 141.766 273.339 141.165C274.1 140.564 274.932 140.191 275.834 140.045C276.75 139.897 277.484 140.018 278.036 140.406C278.602 140.792 278.941 141.338 279.055 142.043C279.164 142.721 279.074 143.391 278.786 144.052C278.495 144.699 278.064 145.362 277.492 146.041C276.932 146.705 276.266 147.386 275.493 148.084C274.718 148.769 273.9 149.481 273.039 150.221C273.243 150.897 273.504 151.504 273.822 152.039C274.137 152.561 274.5 153.001 274.912 153.357C275.321 153.701 275.769 153.949 276.256 154.102C276.742 154.242 277.263 154.267 277.82 154.177ZM276.663 143.043C276.578 142.511 276.364 142.116 276.023 141.857C275.696 141.596 275.326 141.499 274.915 141.565C274.57 141.621 274.225 141.807 273.881 142.121C273.535 142.423 273.246 142.872 273.015 143.469C272.783 144.053 272.627 144.781 272.55 145.653C272.472 146.525 272.53 147.56 272.722 148.757L272.796 149.216C273.209 148.904 273.656 148.511 274.138 148.037C274.631 147.548 275.078 147.025 275.478 146.469C275.879 145.913 276.196 145.343 276.429 144.76C276.673 144.161 276.751 143.589 276.663 143.043Z" fill="black"/>
<path d="M285.789 153.319C285.748 153.066 285.756 152.82 285.813 152.578C285.869 152.337 285.964 152.124 286.098 151.939C286.242 151.738 286.42 151.573 286.631 151.443C286.841 151.314 287.073 151.228 287.325 151.188C287.577 151.147 287.823 151.155 288.064 151.212C288.304 151.268 288.518 151.37 288.705 151.517C288.903 151.649 289.067 151.82 289.196 152.032C289.325 152.243 289.41 152.475 289.451 152.727C289.491 152.98 289.484 153.227 289.427 153.468C289.371 153.709 289.27 153.93 289.125 154.131C288.992 154.316 288.82 154.474 288.609 154.603C288.398 154.733 288.167 154.818 287.915 154.859C287.663 154.9 287.417 154.892 287.176 154.835C286.936 154.778 286.716 154.684 286.518 154.552C286.331 154.405 286.173 154.226 286.044 154.015C285.914 153.804 285.83 153.572 285.789 153.319Z" fill="black"/>
<path d="M293.551 152.065C293.51 151.812 293.518 151.565 293.575 151.324C293.631 151.083 293.726 150.87 293.86 150.684C294.004 150.484 294.182 150.318 294.393 150.189C294.603 150.059 294.834 149.974 295.087 149.933C295.339 149.893 295.585 149.901 295.825 149.957C296.066 150.014 296.28 150.116 296.467 150.263C296.665 150.395 296.829 150.566 296.958 150.777C297.087 150.988 297.172 151.22 297.213 151.473C297.253 151.726 297.245 151.973 297.189 152.214C297.132 152.455 297.032 152.676 296.887 152.877C296.753 153.062 296.581 153.22 296.371 153.349C296.16 153.479 295.929 153.564 295.677 153.605C295.425 153.645 295.178 153.637 294.938 153.581C294.697 153.524 294.478 153.43 294.28 153.298C294.093 153.151 293.935 152.972 293.805 152.761C293.676 152.55 293.591 152.318 293.551 152.065Z" fill="black"/>
<path d="M301.313 150.811C301.272 150.558 301.28 150.311 301.336 150.07C301.393 149.829 301.488 149.615 301.621 149.43C301.766 149.229 301.944 149.064 302.154 148.934C302.365 148.805 302.596 148.72 302.848 148.679C303.1 148.638 303.347 148.646 303.587 148.703C303.828 148.76 304.042 148.861 304.229 149.009C304.427 149.14 304.59 149.312 304.72 149.523C304.849 149.734 304.934 149.966 304.974 150.219C305.015 150.472 305.007 150.718 304.951 150.96C304.894 151.201 304.794 151.422 304.649 151.622C304.515 151.808 304.343 151.965 304.133 152.095C303.922 152.224 303.691 152.31 303.439 152.35C303.187 152.391 302.94 152.383 302.7 152.326C302.459 152.27 302.24 152.176 302.042 152.044C301.855 151.897 301.697 151.717 301.567 151.506C301.438 151.295 301.353 151.063 301.313 150.811Z" fill="black"/>
<path d="M116.935 156.135C117.313 155.787 117.639 155.381 117.913 154.918C118.206 154.453 118.442 153.958 118.62 153.433C118.798 152.908 118.92 152.362 118.985 151.795C119.051 151.228 119.053 150.658 118.992 150.087C118.9 149.229 118.658 148.397 118.265 147.59C117.888 146.763 117.334 146.046 116.602 145.438C115.886 144.811 114.989 144.338 113.909 144.02C112.83 143.703 111.551 143.623 110.072 143.782C108.433 143.959 106.912 144.393 105.508 145.086C104.104 145.779 102.899 146.64 101.892 147.67C100.902 148.698 100.151 149.845 99.6375 151.111C99.1241 152.376 98.9371 153.661 99.0766 154.965C99.2238 156.34 99.6753 157.53 100.431 158.532C101.203 159.515 102.162 160.388 103.307 161.15C104.467 161.893 105.764 162.557 107.196 163.144C108.629 163.731 110.087 164.306 111.571 164.869C113.055 165.432 114.516 166.034 115.954 166.674C117.39 167.297 118.686 168.034 119.84 168.885C121.012 169.735 121.983 170.724 122.752 171.851C123.54 172.977 124.017 174.326 124.186 175.898C124.346 177.399 124.143 178.875 123.578 180.327C123.012 181.779 122.163 183.108 121.031 184.314C119.896 185.502 118.516 186.499 116.89 187.306C115.284 188.129 113.51 188.645 111.568 188.854C109.395 189.088 107.569 189.04 106.092 188.711C104.635 188.398 103.45 187.929 102.536 187.305C101.64 186.678 100.988 185.972 100.579 185.184C100.169 184.379 99.925 183.62 99.8486 182.905C99.755 182.03 99.8046 181.23 99.9973 180.504C100.206 179.759 100.512 179.085 100.916 178.481C101.318 177.86 101.783 177.313 102.309 176.841C102.851 176.349 103.409 175.928 103.985 175.577C104.576 175.206 105.147 174.901 105.698 174.661C106.265 174.401 106.775 174.202 107.229 174.063L107.642 175.4C107.436 175.495 107.063 175.715 106.524 176.063C106 176.39 105.464 176.854 104.915 177.455C104.365 178.038 103.9 178.748 103.521 179.583C103.142 180.419 103.01 181.373 103.124 182.445C103.203 183.177 103.431 183.875 103.808 184.539C104.203 185.201 104.742 185.776 105.425 186.262C106.108 186.749 106.922 187.113 107.867 187.355C108.812 187.597 109.89 187.652 111.102 187.522C112.563 187.365 113.822 187.094 114.88 186.709C115.954 186.305 116.859 185.837 117.596 185.306C118.35 184.774 118.946 184.195 119.383 183.569C119.837 182.924 120.173 182.274 120.391 181.618C120.627 180.96 120.766 180.322 120.808 179.703C120.866 179.065 120.868 178.495 120.814 177.995C120.669 176.638 120.23 175.483 119.498 174.532C118.763 173.563 117.837 172.732 116.717 172.04C115.614 171.327 114.376 170.71 113.005 170.189C111.632 169.65 110.224 169.124 108.781 168.611C107.356 168.095 105.956 167.55 104.578 166.976C103.201 166.401 101.947 165.714 100.817 164.914C99.7036 164.112 98.7732 163.164 98.0255 162.07C97.2758 160.958 96.8168 159.617 96.6487 158.045C96.4232 155.937 96.6534 153.961 97.3392 152.116C98.0231 150.254 99.0375 148.618 100.383 147.209C101.726 145.782 103.331 144.616 105.199 143.71C107.084 142.803 109.105 142.233 111.26 142.001C113.096 141.804 114.686 141.85 116.033 142.139C117.379 142.428 118.5 142.876 119.394 143.485C120.306 144.091 120.996 144.821 121.466 145.674C121.954 146.525 122.247 147.415 122.346 148.344C122.465 149.451 122.377 150.482 122.082 151.435C121.806 152.386 121.429 153.248 120.953 154.022C120.493 154.776 119.977 155.428 119.405 155.977C118.832 156.509 118.315 156.899 117.855 157.147L116.935 156.135Z" fill="black"/>
<path d="M136.782 181.699C137.405 181.632 138.02 181.403 138.627 181.012C139.252 180.62 139.858 180.049 140.445 179.299C141.049 178.548 141.65 177.598 142.248 176.45C142.844 175.283 143.436 173.91 144.024 172.329L144.231 171.737L145.416 172.45L145.209 173.042C144.451 175.056 143.664 176.794 142.847 178.255C142.048 179.714 141.231 180.922 140.396 181.879C139.579 182.834 138.746 183.556 137.898 184.045C137.049 184.534 136.215 184.822 135.395 184.91C134.237 185.035 133.178 184.905 132.217 184.52C131.257 184.136 130.421 183.566 129.71 182.811C128.996 182.039 128.421 181.125 127.984 180.07C127.527 178.999 127.233 177.856 127.103 176.641C126.897 174.712 126.977 172.933 127.343 171.304C127.69 169.658 128.24 168.226 128.992 167.007C129.763 165.786 130.676 164.802 131.732 164.056C132.787 163.311 133.921 162.873 135.132 162.742C136.362 162.61 137.33 162.822 138.039 163.378C138.765 163.933 139.179 164.683 139.28 165.63C139.377 166.541 139.211 167.426 138.78 168.285C138.347 169.127 137.727 169.98 136.918 170.843C136.125 171.688 135.19 172.547 134.112 173.422C133.032 174.279 131.893 175.169 130.694 176.093C130.918 177.008 131.223 177.834 131.608 178.569C131.991 179.287 132.444 179.898 132.966 180.402C133.487 180.888 134.066 181.25 134.705 181.488C135.341 181.709 136.033 181.779 136.782 181.699ZM136.025 166.793C135.949 166.078 135.692 165.537 135.257 165.168C134.838 164.797 134.353 164.642 133.801 164.701C133.338 164.751 132.866 164.973 132.385 165.368C131.903 165.745 131.487 166.323 131.138 167.101C130.787 167.862 130.529 168.82 130.364 169.976C130.2 171.132 130.203 172.514 130.375 174.122L130.441 174.738C131.013 174.351 131.636 173.86 132.311 173.263C133.002 172.647 133.634 171.982 134.206 171.27C134.779 170.558 135.241 169.822 135.592 169.062C135.959 168.282 136.103 167.525 136.025 166.793Z" fill="black"/>
</g>
<path d="M40.6137 148.1C36.6995 150.36 32.7295 150.715 28.7037 149.166C24.714 147.479 21.5502 144.61 19.2122 140.561C17.2808 137.216 16.0854 133.739 15.6259 130.131C15.1664 126.523 15.1638 123.003 15.6182 119.571C16.1595 116.09 16.9657 112.866 18.0368 109.9C19.1441 106.796 20.2552 104.1 21.3703 101.813C22.4346 99.4377 23.3542 97.6156 24.1292 96.3465C24.9912 95.0272 25.3787 94.3927 25.2917 94.4429L30.656 96.8039C30.0765 97.608 29.4393 98.9149 28.7445 100.725C27.9988 102.446 27.3802 104.388 26.8887 106.55C26.4841 108.661 26.2863 110.83 26.2951 113.055C26.2532 115.192 26.6642 117.009 27.5283 118.505C28.0365 119.385 29.0667 119.964 30.6188 120.242C32.12 120.432 33.8099 120.747 35.6884 121.189C37.516 121.542 39.4092 122.21 41.3679 123.192C43.2757 124.086 44.865 125.633 46.1356 127.834C47.2538 129.77 47.8789 131.757 48.0109 133.794C48.2299 135.78 48.0609 137.697 47.5038 139.544C46.983 141.254 46.1176 142.868 44.9076 144.389C43.6977 145.909 42.2664 147.146 40.6137 148.1ZM72.8631 129.833C70.8625 130.988 68.7817 131.603 66.6208 131.676C64.4598 131.75 62.3384 131.391 60.2566 130.597C58.1748 129.804 56.2269 128.639 54.4129 127.104C52.635 125.431 51.0853 123.45 49.7638 121.161C47.1209 116.584 45.6381 111.806 45.3154 106.827C45.0288 101.711 45.2466 97.0659 45.9687 92.8929C46.8208 87.9406 48.2422 83.0705 50.2329 78.2824L56.0752 79.6632C55.5973 80.6434 55.1233 82.0321 54.6532 83.8294C54.2702 85.5765 54.0577 87.5185 54.0157 89.6555C54.0099 91.6543 54.1419 93.6909 54.4118 95.7652C54.7686 97.7894 55.4044 99.5938 56.3193 101.178C56.9292 102.235 58.0898 102.738 59.8012 102.689C61.5125 102.64 63.456 102.692 65.6316 102.845C67.8072 102.997 70.0303 103.533 72.3007 104.452C74.5203 105.283 76.4688 107.152 78.146 110.057C79.1625 111.817 79.7549 113.647 79.9231 115.545C80.0912 117.444 79.8968 119.316 79.3398 121.164C78.8697 122.961 78.0552 124.664 76.8961 126.272C75.7731 127.742 74.4288 128.929 72.8631 129.833Z" fill="#FF205B" fill-opacity="0.42"/>
<defs>
<filter id="filter0_d_130_700" x="82" y="67.9998" width="228" height="126" filterUnits="userSpaceOnUse" color-interpolation-filters="sRGB">
<feFlood flood-opacity="0" result="BackgroundImageFix"/>
<feColorMatrix in="SourceAlpha" type="matrix" values="0 0 0 0 0 0 0 0 0 0 0 0 0 0 0 0 0 0 127 0" result="hardAlpha"/>
<feOffset dx="1" dy="1"/>
<feGaussianBlur stdDeviation="2"/>
<feComposite in2="hardAlpha" operator="out"/>
<feColorMatrix type="matrix" values="0 0 0 0 0 0 0 0 0 0 0 0 0 0 0 0 0 0 0.25 0"/>
<feBlend mode="normal" in2="BackgroundImageFix" result="effect1_dropShadow_130_700"/>
<feBlend mode="normal" in="SourceGraphic" in2="effect1_dropShadow_130_700" result="shape"/>
</filter>
<linearGradient id="paint0_linear_130_700" x1="175" y1="153" x2="208.59" y2="212.823" gradientUnits="userSpaceOnUse">
<stop stop-color="#F3F3F3" stop-opacity="0.96"/>
<stop offset="1" stop-color="#FDC4D3"/>
</linearGradient>
</defs>
</svg>
