<svg width="298" height="94" viewBox="0 0 298 94" fill="none" xmlns="http://www.w3.org/2000/svg">
<path d="M0 93.99V39.6533H20.3763C24.5506 39.6533 28.0528 40.4315 30.8828 41.988C33.7305 43.5446 35.8796 45.6848 37.33 48.4087C38.7981 51.1149 39.5321 54.1926 39.5321 57.6417C39.5321 61.1262 38.7981 64.2215 37.33 66.9278C35.8619 69.634 33.6951 71.7654 30.8297 73.3219C27.9643 74.8607 24.4356 75.6301 20.2436 75.6301H6.73903V67.538H18.917C21.3579 67.538 23.3567 67.1135 24.9132 66.2645C26.4697 65.4155 27.6194 64.2481 28.3623 62.7623C29.1229 61.2765 29.5031 59.5697 29.5031 57.6417C29.5031 55.7137 29.1229 54.0157 28.3623 52.5476C27.6194 51.0795 26.4609 49.9387 24.8866 49.125C23.3301 48.2937 21.3226 47.8781 18.864 47.8781H9.84323V93.99H0Z" fill="#292E2E"/>
<path d="M57.9251 39.6533V93.99H48.0819V39.6533H57.9251Z" fill="#292E2E"/>
<path d="M68.5842 93.99V39.6533H88.9605C93.1348 39.6533 96.637 40.4315 99.467 41.988C102.315 43.5446 104.464 45.6848 105.914 48.4087C107.382 51.1149 108.116 54.1926 108.116 57.6417C108.116 61.1262 107.382 64.2215 105.914 66.9278C104.446 69.634 102.279 71.7654 99.4139 73.3219C96.5485 74.8607 93.0198 75.6301 88.8278 75.6301H75.3232V67.538H87.5012C89.9421 67.538 91.9409 67.1135 93.4974 66.2645C95.0539 65.4155 96.2036 64.2481 96.9465 62.7623C97.7071 61.2765 98.0874 59.5697 98.0874 57.6417C98.0874 55.7137 97.7071 54.0157 96.9465 52.5476C96.2036 51.0795 95.0451 49.9387 93.4709 49.125C91.9143 48.2937 89.9068 47.8781 87.4482 47.8781H78.4274V93.99H68.5842Z" fill="#292E2E"/>
<path d="M116.666 93.99V39.6533H126.509V85.7387H150.441V93.99H116.666Z" fill="#292E2E"/>
<path d="M158.984 93.99V39.6533H194.324V47.9046H168.827V62.6562H192.493V70.9075H168.827V85.7387H194.536V93.99H158.984Z" fill="#292E2E"/>
<path d="M201.978 47.9046V39.6533H245.331V47.9046H228.537V93.99H218.773V47.9046H201.978Z" fill="#292E2E"/>
<path d="M292.325 15.7757C293.493 23.9474 290.559 30.5271 281.718 35.0206C273.647 39.1227 260.806 40.2908 260.806 40.2908C259.638 32.1191 257.409 12.0437 270.082 5.63438C278.137 1.56083 290.282 5.63441 292.325 15.7757Z" fill="#FF205B"/>
</svg>
