<svg width="307" height="111" viewBox="0 0 307 111" fill="none" xmlns="http://www.w3.org/2000/svg">
<g clip-path="url(#clip0_603_2)">
<path d="M0 111V40.1722H26.7059C32.188 40.1722 36.7304 41.1862 40.4895 43.2143C44.2487 45.2424 47.0681 48.0506 48.9477 51.5608C50.9056 55.071 51.8454 59.1272 51.8454 63.5734C51.8454 68.0977 50.9056 72.1539 48.9477 75.6641C46.9898 79.1743 44.1704 81.9824 40.4112 84.0105C36.652 86.0386 32.0314 87.0527 26.5492 87.0527H8.84974V76.5221H24.8263C28.0372 76.5221 30.6217 75.9761 32.6579 74.884C34.6941 73.792 36.1821 72.2319 37.2003 70.2818C38.2184 68.3317 38.6883 66.1476 38.6883 63.5734C38.6883 61.0773 38.2184 58.8152 37.2003 56.9431C36.2605 54.993 34.6941 53.5109 32.6579 52.4968C30.6217 51.4048 27.9589 50.8587 24.748 50.8587H12.9222V111H0Z" fill="#292E2E"/>
<path d="M75.8102 40.1722V111H62.9663V40.1722H75.8102Z" fill="#292E2E"/>
<path d="M89.7505 111V40.1722H116.456C121.939 40.1722 126.481 41.1862 130.24 43.2143C133.999 45.2424 136.819 48.0506 138.698 51.5608C140.656 55.071 141.596 59.1272 141.596 63.5734C141.596 68.0977 140.656 72.1539 138.698 75.6641C136.74 79.1743 133.921 81.9824 130.162 84.0105C126.403 86.0386 121.782 87.0527 116.3 87.0527H98.6003V76.5221H114.577C117.788 76.5221 120.372 75.9761 122.408 74.884C124.445 73.792 125.933 72.2319 126.951 70.2818C127.969 68.3317 128.439 66.1476 128.439 63.5734C128.439 61.0773 127.969 58.8152 126.951 56.9431C126.011 54.993 124.445 53.5109 122.408 52.4968C120.372 51.4048 117.709 50.8587 114.498 50.8587H102.673V111H89.7505Z" fill="#292E2E"/>
<path d="M152.717 111V40.1722H165.639V100.235H196.966V111H152.717Z" fill="#292E2E"/>
<path d="M189.212 50.9367V40.1722H245.992V50.9367H223.985V111H211.219V50.9367H189.212Z" fill="#292E2E"/>
<path d="M306.687 14.5868C308.175 24.7273 304.494 32.9178 293.451 38.5341C283.349 43.6044 267.294 45.0864 267.294 45.0864C265.806 34.9459 263.065 9.90653 278.884 1.9501C288.987 -3.12017 304.181 1.95011 306.687 14.5868Z" fill="#FF205B"/>
</g>
<defs>
<clipPath id="clip0_603_2">
<rect width="307" height="111" fill="white"/>
</clipPath>
</defs>
</svg>
