<svg width="163" height="37" viewBox="0 0 163 37" fill="none" xmlns="http://www.w3.org/2000/svg">
<path d="M0 37V0H13.5382C16.3116 0 18.6385 0.529948 20.5188 1.58984C22.4108 2.64974 23.8387 4.1071 24.8023 5.96191C25.7777 7.80469 26.2654 9.90039 26.2654 12.249C26.2654 14.6217 25.7777 16.7295 24.8023 18.5723C23.8269 20.415 22.3873 21.8664 20.4835 22.9263C18.5797 23.9741 16.2352 24.498 13.45 24.498H4.47747V18.9878H12.5686C14.1904 18.9878 15.5184 18.6987 16.5525 18.1206C17.5867 17.5425 18.3506 16.7476 18.8441 15.7358C19.3495 14.7241 19.6021 13.5618 19.6021 12.249C19.6021 10.9362 19.3495 9.77995 18.8441 8.78027C18.3506 7.7806 17.5808 7.00374 16.5349 6.44971C15.5007 5.88363 14.1669 5.60059 12.5334 5.60059H6.53992V37H0Z" fill="white"/>
<path d="M38.4859 0V37H31.946V0H38.4859Z" fill="white"/>
<path d="M45.5679 37V0H59.1061C61.8795 0 64.2064 0.529948 66.0867 1.58984C67.9787 2.64974 69.4066 4.1071 70.3702 5.96191C71.3456 7.80469 71.8333 9.90039 71.8333 12.249C71.8333 14.6217 71.3456 16.7295 70.3702 18.5723C69.3948 20.415 67.9552 21.8664 66.0514 22.9263C64.1476 23.9741 61.8031 24.498 59.0179 24.498H50.0454V18.9878H58.1365C59.7583 18.9878 61.0863 18.6987 62.1204 18.1206C63.1546 17.5425 63.9185 16.7476 64.412 15.7358C64.9174 14.7241 65.17 13.5618 65.17 12.249C65.17 10.9362 64.9174 9.77995 64.412 8.78027C63.9185 7.7806 63.1487 7.00374 62.1028 6.44971C61.0686 5.88363 59.7348 5.60059 58.1013 5.60059H52.1078V37H45.5679Z" fill="white"/>
<path d="M77.5139 37V0H84.0538V31.3813H99.9541V37H77.5139Z" fill="white"/>
<path d="M105.63 37V0H129.111V5.61865H112.17V15.6636H127.894V21.2822H112.17V31.3813H129.252V37H105.63Z" fill="white"/>
<path d="M134.196 5.61865V0H163V5.61865H151.842V37H145.355V5.61865H134.196Z" fill="white"/>
</svg>
