<svg width="20" height="19" viewBox="0 0 20 19" fill="none" xmlns="http://www.w3.org/2000/svg">
<g clip-path="url(#clip0_416_185)">
<path d="M8.69116 19.0001C6.67211 19.0001 4.6585 19.0058 2.63946 19.0001C1.34422 18.9944 0.310204 18.1164 0.0544218 16.8078C0.0163265 16.6095 0 16.3999 0 16.196C0 13.2446 0 10.2875 0 7.33611C0 5.70463 1.13197 4.532 2.69932 4.52633C3.14014 4.52633 3.58095 4.52633 4.02177 4.52633C4.28844 4.52633 4.51156 4.4357 4.6966 4.23742C4.92517 3.9995 5.15918 3.75591 5.38775 3.51799C5.89932 2.99115 6.51973 2.71924 7.2381 2.71357C8.28299 2.70224 9.32789 2.70791 10.3782 2.71357C10.917 2.71357 11.3088 3.11011 11.3088 3.62562C11.3088 4.14679 10.9116 4.52633 10.3728 4.52633C9.36054 4.52633 8.3483 4.532 7.33605 4.52633C7.03129 4.52633 6.78095 4.62264 6.56871 4.8549C6.35646 5.08716 6.13878 5.30809 5.92109 5.52902C5.39864 6.06718 4.76735 6.33343 4.03265 6.34476C3.58639 6.35042 3.13469 6.34476 2.68844 6.34476C2.08435 6.34476 1.73605 6.70731 1.73605 7.33045C1.73605 10.2932 1.73605 13.2502 1.73605 16.213C1.73605 16.8191 2.0898 17.1987 2.67211 17.1987C6.68844 17.1987 10.6993 17.1987 14.7156 17.1987C15.298 17.1987 15.6463 16.8248 15.6463 16.213C15.6463 14.1793 15.6463 12.1399 15.6517 10.1062C15.6517 9.95895 15.6626 9.806 15.7061 9.67004C15.8313 9.25084 16.234 9.00725 16.6694 9.06957C17.0558 9.12621 17.366 9.4831 17.3932 9.89664C17.4041 10.0779 17.3986 10.2649 17.3986 10.4461C17.3986 12.3779 17.3986 14.3039 17.3986 16.2356C17.3986 17.6349 16.5116 18.7338 15.1946 18.9718C15.0204 19.0058 14.8408 19.0001 14.6667 19.0001C12.6694 19.0001 10.683 19.0001 8.69116 19.0001Z" fill="white"/>
<path d="M8.70183 16.2866C6.30183 16.2866 4.35897 14.2699 4.35353 11.7773C4.34808 9.27344 6.29638 7.23975 8.69638 7.23975C11.1018 7.23975 13.0447 9.26777 13.0392 11.7716C13.0392 14.2755 11.1018 16.2866 8.70183 16.2866ZM6.09502 11.7716C6.10047 13.2672 7.27053 14.4851 8.70183 14.4795C10.1331 14.4795 11.3086 13.2502 11.3086 11.766C11.3086 10.2648 10.1331 9.04684 8.6855 9.05251C7.23788 9.06384 6.08958 10.2705 6.09502 11.7716Z" fill="white"/>
<path d="M17.3932 4.52629C17.3932 5.13809 17.3987 5.72724 17.3932 6.32205C17.3878 6.73559 17.1538 7.06982 16.8 7.19444C16.2286 7.39272 15.6681 6.96785 15.6517 6.31072C15.6408 5.80088 15.6517 5.29105 15.6517 4.78687C15.6517 4.70756 15.6517 4.63392 15.6517 4.52629C15.4232 4.52629 15.2109 4.52629 14.9932 4.52629C14.6449 4.52629 14.3021 4.52629 13.9538 4.52629C13.4313 4.52062 13.0449 4.13541 13.0449 3.61991C13.0449 3.1214 13.4259 2.72486 13.9374 2.71353C14.4599 2.7022 14.9823 2.71353 15.5048 2.70786C15.5429 2.70786 15.5864 2.7022 15.6517 2.69653C15.6517 2.61722 15.6517 2.54358 15.6517 2.46994C15.6517 1.96576 15.6463 1.46725 15.6517 0.963079C15.6572 0.402256 16.0272 -0.00561523 16.5225 -0.00561523C17.0232 -0.00561523 17.3878 0.402256 17.3932 0.963079C17.3932 1.53523 17.3932 2.10738 17.3932 2.69653C17.4803 2.7022 17.551 2.70786 17.6218 2.70786C18.1061 2.70786 18.5851 2.70786 19.0694 2.70786C19.6136 2.71353 20 3.08741 20.0055 3.60858C20.0055 4.13541 19.6136 4.51496 19.0585 4.52062C18.5089 4.52629 17.9592 4.52629 17.3932 4.52629Z" fill="white"/>
</g>
<defs>
<clipPath id="clip0_416_185">
<rect width="20" height="19" fill="white"/>
</clipPath>
</defs>
</svg>
