<svg width="30" height="30" viewBox="0 0 30 30" fill="none" xmlns="http://www.w3.org/2000/svg">
<g clip-path="url(#clip0_246_567)">
<path d="M15 28.125C11.519 28.125 8.18064 26.7422 5.71922 24.2808C3.25781 21.8194 1.875 18.481 1.875 15C1.875 11.519 3.25781 8.18064 5.71922 5.71922C8.18064 3.25781 11.519 1.875 15 1.875C18.481 1.875 21.8194 3.25781 24.2808 5.71922C26.7422 8.18064 28.125 11.519 28.125 15C28.125 18.481 26.7422 21.8194 24.2808 24.2808C21.8194 26.7422 18.481 28.125 15 28.125ZM15 30C18.9782 30 22.7936 28.4196 25.6066 25.6066C28.4196 22.7936 30 18.9782 30 15C30 11.0218 28.4196 7.20644 25.6066 4.3934C22.7936 1.58035 18.9782 0 15 0C11.0218 0 7.20644 1.58035 4.3934 4.3934C1.58035 7.20644 0 11.0218 0 15C0 18.9782 1.58035 22.7936 4.3934 25.6066C7.20644 28.4196 11.0218 30 15 30Z" fill="#6B9C3E"/>
<path d="M20.5687 9.31866L20.5312 9.35992L14.0193 17.6568L10.0949 13.7305C9.82832 13.4821 9.47574 13.3469 9.11142 13.3533C8.74711 13.3598 8.39951 13.5073 8.14186 13.765C7.88421 14.0226 7.73663 14.3702 7.7302 14.7346C7.72377 15.0989 7.859 15.4515 8.1074 15.718L13.0687 20.6812C13.2023 20.8146 13.3615 20.9197 13.5366 20.9903C13.7118 21.0608 13.8994 21.0954 14.0882 21.0919C14.277 21.0884 14.4632 21.0469 14.6356 20.9699C14.808 20.8929 14.9632 20.7819 15.0918 20.6437L22.5768 11.2874C22.8316 11.0199 22.971 10.6628 22.9647 10.2934C22.9584 9.92399 22.807 9.57188 22.5431 9.31322C22.2793 9.05455 21.9243 8.91012 21.5548 8.91114C21.1853 8.91216 20.8311 9.05855 20.5687 9.31866Z" fill="#6B9C3E"/>
</g>
<defs>
<clipPath id="clip0_246_567">
<rect width="30" height="30" fill="white"/>
</clipPath>
</defs>
</svg>
