<svg width="199" height="63" viewBox="0 0 199 63" fill="none" xmlns="http://www.w3.org/2000/svg">
<path d="M0 62.9385V26.553H13.6446C16.4398 26.553 18.785 27.0742 20.68 28.1165C22.587 29.1588 24.026 30.5919 24.9973 32.4159C25.9803 34.2281 26.4719 36.289 26.4719 38.5986C26.4719 40.9319 25.9803 43.0047 24.9973 44.8168C24.0142 46.629 22.5633 48.0562 20.6445 49.0985C18.7257 50.129 16.3628 50.6442 13.5557 50.6442H4.51265V45.2255H12.6674C14.3019 45.2255 15.6403 44.9412 16.6826 44.3727C17.7249 43.8042 18.4948 43.0224 18.9922 42.0275C19.5015 41.0326 19.7562 39.8896 19.7562 38.5986C19.7562 37.3076 19.5015 36.1706 18.9922 35.1875C18.4948 34.2044 17.719 33.4405 16.6648 32.8956C15.6225 32.3389 14.2782 32.0606 12.6319 32.0606H6.59131V62.9385H0Z" fill="#292E2E"/>
<path d="M38.7884 26.553V62.9385H32.1971V26.553H38.7884Z" fill="#292E2E"/>
<path d="M45.926 62.9385V26.553H59.5706C62.3658 26.553 64.711 27.0742 66.606 28.1165C68.5129 29.1588 69.952 30.5919 70.9232 32.4159C71.9063 34.2281 72.3979 36.289 72.3979 38.5986C72.3979 40.9319 71.9063 43.0047 70.9232 44.8168C69.9402 46.629 68.4893 48.0562 66.5705 49.0985C64.6517 50.129 62.2888 50.6442 59.4817 50.6442H50.4387V45.2255H58.5934C60.2279 45.2255 61.5663 44.9412 62.6086 44.3727C63.6509 43.8042 64.4208 43.0224 64.9182 42.0275C65.4275 41.0326 65.6822 39.8896 65.6822 38.5986C65.6822 37.3076 65.4275 36.1706 64.9182 35.1875C64.4208 34.2044 63.645 33.4405 62.5908 32.8956C61.5485 32.3389 60.2042 32.0606 58.5579 32.0606H52.5173V62.9385H45.926Z" fill="#292E2E"/>
<path d="M78.1231 62.9385V26.553H84.7144V57.4132H100.74V62.9385H78.1231Z" fill="#292E2E"/>
<path d="M106.46 62.9385V26.553H130.125V32.0784H113.052V41.9565H128.899V47.4818H113.052V57.4132H130.267V62.9385H106.46Z" fill="#292E2E"/>
<path d="M135.251 32.0784V26.553H164.281V32.0784H153.035V62.9385H146.497V32.0784H135.251Z" fill="#292E2E"/>
<path d="M195.75 10.5638C196.531 16.0359 194.567 20.4419 188.646 23.4508C183.242 26.1977 174.643 26.9799 174.643 26.9799C173.861 21.5079 172.369 8.06482 180.855 3.77293C186.249 1.04516 194.382 3.77295 195.75 10.5638Z" fill="#FF205B"/>
</svg>
