<svg width="209" height="67" viewBox="0 0 209 67" fill="none" xmlns="http://www.w3.org/2000/svg">
<path d="M0 66.1253V27.8976H14.3354C17.2722 27.8976 19.7361 28.4451 21.7271 29.5402C23.7306 30.6352 25.2425 32.141 26.2629 34.0573C27.2957 35.9612 27.8122 38.1265 27.8122 40.553C27.8122 43.0045 27.2957 45.1822 26.2629 47.0861C25.23 48.99 23.7057 50.4895 21.6897 51.5846C19.6738 52.6672 17.1913 53.2085 14.2421 53.2085H4.74113V47.5154H13.3088C15.026 47.5154 16.4322 47.2168 17.5273 46.6195C18.6223 46.0222 19.4312 45.2009 19.9538 44.1556C20.4889 43.1103 20.7565 41.9094 20.7565 40.553C20.7565 39.1967 20.4889 38.002 19.9538 36.9692C19.4312 35.9364 18.6161 35.1337 17.5086 34.5613C16.4135 33.9764 15.0011 33.684 13.2714 33.684H6.92504V66.1253H0Z" fill="#292E2E"/>
<path d="M40.7523 27.8976V66.1253H33.8272V27.8976H40.7523Z" fill="#292E2E"/>
<path d="M48.2513 66.1253V27.8976H62.5867C65.5234 27.8976 67.9873 28.4451 69.9784 29.5402C71.9818 30.6352 73.4938 32.141 74.5142 34.0573C75.547 35.9612 76.0634 38.1265 76.0634 40.553C76.0634 43.0045 75.547 45.1822 74.5142 47.0861C73.4813 48.99 71.9569 50.4895 69.941 51.5846C67.9251 52.6672 65.4426 53.2085 62.4934 53.2085H52.9924V47.5154H61.5601C63.2773 47.5154 64.6835 47.2168 65.7785 46.6195C66.8736 46.0222 67.6825 45.2009 68.2051 44.1556C68.7402 43.1103 69.0077 41.9094 69.0077 40.553C69.0077 39.1967 68.7402 38.002 68.2051 36.9692C67.6825 35.9364 66.8674 35.1337 65.7599 34.5613C64.6648 33.9764 63.2524 33.684 61.5227 33.684H55.1763V66.1253H48.2513Z" fill="#292E2E"/>
<path d="M82.0785 66.1253V27.8976H89.0036V60.3202H105.84V66.1253H82.0785Z" fill="#292E2E"/>
<path d="M111.851 66.1253V27.8976H136.714V33.7027H118.776V44.0809H135.426V49.886H118.776V60.3202H136.863V66.1253H111.851Z" fill="#292E2E"/>
<path d="M142.099 33.7027V27.8976H172.599V33.7027H160.783V66.1253H153.914V33.7027H142.099Z" fill="#292E2E"/>
<path d="M205.661 11.0987C206.482 16.8478 204.418 21.4769 198.198 24.6382C192.52 27.5241 183.485 28.346 183.485 28.346C182.664 22.5969 181.096 8.4732 190.012 3.96401C195.679 1.09813 204.223 3.96403 205.661 11.0987Z" fill="#FF205B"/>
</svg>
