<svg width="36" height="36" viewBox="0 0 36 36" fill="none" xmlns="http://www.w3.org/2000/svg">
<g clip-path="url(#clip0_44_292)">
<path d="M18.1125 21.6C18.8685 21.6 19.2465 21.06 19.359 20.1892C19.449 18.9878 19.8045 18.3555 21.2647 17.3543C22.779 16.2855 23.625 14.9018 23.625 12.8858C23.625 9.9045 21.555 7.875 18.5355 7.875C16.2405 7.875 14.5035 8.982 13.8105 10.7775C13.5998 11.2677 13.4941 11.7965 13.5 12.33C13.5 13.2143 13.9567 13.77 14.7262 13.77C15.3382 13.77 15.75 13.4393 15.9952 12.6225C16.3507 11.2905 17.1765 10.5638 18.4117 10.5638C19.7842 10.5638 20.7292 11.5673 20.7292 13.0027C20.7292 14.2695 20.2612 14.994 18.8797 15.984C17.487 16.9583 16.7962 18.0405 16.7962 19.674V19.9237C16.7962 20.8868 17.2642 21.6 18.1125 21.6Z" fill="#FFFAFB"/>
<path d="M23.114 5.65403L21.0418 3.53003L22.6505 1.95953L24.05 3.39278L26.0525 3.36803C26.9193 3.35777 27.7794 3.52093 28.5823 3.84792C29.3851 4.17492 30.1145 4.65914 30.7274 5.27211C31.3404 5.88508 31.8246 6.61443 32.1516 7.41726C32.4786 8.2201 32.6418 9.08021 32.6315 9.94703L32.609 11.9495L34.04 13.349C34.6598 13.9547 35.1523 14.6781 35.4885 15.4767C35.8248 16.2754 35.998 17.1332 35.998 17.9998C35.998 18.8663 35.8248 19.7242 35.4885 20.5228C35.1523 21.3215 34.6598 22.0449 34.04 22.6505L32.6068 24.05L32.6315 26.0525C32.6418 26.9193 32.4786 27.7794 32.1516 28.5823C31.8246 29.3851 31.3404 30.1145 30.7274 30.7274C30.1145 31.3404 29.3851 31.8246 28.5823 32.1516C27.7794 32.4786 26.9193 32.6418 26.0525 32.6315L24.05 32.609L22.6505 34.04C22.0449 34.6598 21.3215 35.1523 20.5228 35.4885C19.7242 35.8248 18.8663 35.998 17.9998 35.998C17.1332 35.998 16.2754 35.8248 15.4767 35.4885C14.6781 35.1523 13.9547 34.6598 13.349 34.04L11.9495 32.6068L9.94703 32.6315C9.08021 32.6418 8.2201 32.4786 7.41726 32.1516C6.61443 31.8246 5.88508 31.3404 5.27211 30.7274C4.65914 30.1145 4.17492 29.3851 3.84792 28.5823C3.52093 27.7794 3.35777 26.9193 3.36803 26.0525L3.39053 24.05L1.95953 22.6505C1.33974 22.0449 0.847262 21.3215 0.511028 20.5228C0.174793 19.7242 0.00158691 18.8663 0.00158691 17.9998C0.00158691 17.1332 0.174793 16.2754 0.511028 15.4767C0.847262 14.6781 1.33974 13.9547 1.95953 13.349L3.39278 11.9495L3.36803 9.94703C3.35777 9.08021 3.52093 8.2201 3.84792 7.41726C4.17492 6.61443 4.65914 5.88508 5.27211 5.27211C5.88508 4.65914 6.61443 4.17492 7.41726 3.84792C8.2201 3.52093 9.08021 3.35777 9.94703 3.36803L11.9495 3.39053L13.349 1.95953C13.9547 1.33974 14.6781 0.847262 15.4767 0.511028C16.2754 0.174793 17.1332 0.00158691 17.9998 0.00158691C18.8663 0.00158691 19.7242 0.174793 20.5228 0.511028C21.3215 0.847262 22.0449 1.33974 22.6505 1.95953L21.0418 3.53003C20.6457 3.12455 20.1725 2.80234 19.6501 2.58236C19.1277 2.36238 18.5666 2.24906 17.9998 2.24906C17.4329 2.24906 16.8718 2.36238 16.3494 2.58236C15.827 2.80234 15.3539 3.12455 14.9578 3.53003L12.8878 5.65403L9.91778 5.61803C9.35118 5.61169 8.78902 5.71866 8.26435 5.93264C7.73967 6.14662 7.26304 6.4633 6.86248 6.86407C6.46191 7.26485 6.14548 7.74164 5.93177 8.26643C5.71807 8.79122 5.61139 9.35343 5.61803 9.92002L5.65403 12.8855L3.53003 14.9578C3.12455 15.3539 2.80234 15.827 2.58236 16.3494C2.36238 16.8718 2.24906 17.4329 2.24906 17.9998C2.24906 18.5666 2.36238 19.1277 2.58236 19.6501C2.80234 20.1725 3.12455 20.6457 3.53003 21.0418L5.65403 23.1118L5.61803 26.0818C5.61169 26.6484 5.71866 27.2105 5.93264 27.7352C6.14662 28.2599 6.4633 28.7365 6.86407 29.1371C7.26485 29.5376 7.74164 29.8541 8.26643 30.0678C8.79122 30.2815 9.35343 30.3882 9.92002 30.3815L12.8855 30.3455L14.9578 32.4695C15.3539 32.875 15.827 33.1972 16.3494 33.4172C16.8718 33.6372 17.4329 33.7505 17.9998 33.7505C18.5666 33.7505 19.1277 33.6372 19.6501 33.4172C20.1725 33.1972 20.6457 32.875 21.0418 32.4695L23.1118 30.3455L26.0818 30.3815C26.6484 30.3879 27.2105 30.2809 27.7352 30.0669C28.2599 29.8529 28.7365 29.5363 29.1371 29.1355C29.5376 28.7347 29.8541 28.2579 30.0678 27.7331C30.2815 27.2083 30.3882 26.6461 30.3815 26.0795L30.3455 23.114L32.4695 21.0418C32.875 20.6457 33.1972 20.1725 33.4172 19.6501C33.6372 19.1277 33.7505 18.5666 33.7505 17.9998C33.7505 17.4329 33.6372 16.8718 33.4172 16.3494C33.1972 15.827 32.875 15.3539 32.4695 14.9578L30.3455 12.8878L30.3815 9.91778C30.3879 9.35118 30.2809 8.78902 30.0669 8.26435C29.8529 7.73967 29.5363 7.26304 29.1355 6.86248C28.7347 6.46191 28.2579 6.14548 27.7331 5.93177C27.2083 5.71807 26.6461 5.61139 26.0795 5.61803L23.114 5.65403Z" fill="#FFFAFB"/>
<path d="M15.7523 24.75C15.7523 24.1533 15.9893 23.581 16.4113 23.159C16.8332 22.7371 17.4055 22.5 18.0023 22.5C18.599 22.5 19.1713 22.7371 19.5932 23.159C20.0152 23.581 20.2523 24.1533 20.2523 24.75C20.2523 25.3467 20.0152 25.919 19.5932 26.341C19.1713 26.7629 18.599 27 18.0023 27C17.4055 27 16.8332 26.7629 16.4113 26.341C15.9893 25.919 15.7523 25.3467 15.7523 24.75Z" fill="#FFFAFB"/>
</g>
<defs>
<clipPath id="clip0_44_292">
<rect width="36" height="36" fill="white"/>
</clipPath>
</defs>
</svg>
